<svg width="32" height="32" viewBox="0 0 32 32" fill="none" xmlns="http://www.w3.org/2000/svg">
<path d="M11.8725 22.0011H20.1277C19.3012 26.3629 17.646 29.332 16.0001 29.332C14.4041 29.332 12.7993 26.5401 11.9499 22.3937L11.8725 22.0011H20.1277H11.8725ZM4.08785 22.0013L9.82871 22.0011C10.3151 24.7773 11.1394 27.1393 12.2183 28.7923C8.80117 27.7831 5.95629 25.4433 4.28299 22.3732L4.08785 22.0013ZM22.1715 22.0011L27.9124 22.0013C26.2707 25.2541 23.3357 27.7428 19.7833 28.7919C20.7893 27.2483 21.5743 25.0883 22.0699 22.5505L22.1715 22.0011L27.9124 22.0013L22.1715 22.0011ZM22.5753 13.3344L29.0688 13.3336C29.2437 14.1953 29.3355 15.0873 29.3355 16.0007C29.3355 17.3944 29.1217 18.7383 28.7251 20.0012H22.4549C22.5953 18.7244 22.6688 17.3829 22.6688 16.0007C22.6688 15.3949 22.6547 14.7969 22.6271 14.2089L22.5753 13.3344L29.0688 13.3336L22.5753 13.3344ZM2.93147 13.3336L9.42483 13.3344C9.36317 14.2011 9.33139 15.092 9.33139 16.0007C9.33139 17.1065 9.37847 18.1861 9.46917 19.2276L9.54533 20.0012H3.27516C2.87853 18.7383 2.66472 17.3944 2.66472 16.0007C2.66472 15.0873 2.75653 14.1953 2.93147 13.3336ZM11.4341 13.3336H20.5661C20.6331 14.1945 20.6688 15.0863 20.6688 16.0007C20.6688 17.1175 20.6156 18.2007 20.5171 19.2349L20.4348 20.0012H11.5654C11.4147 18.7401 11.3314 17.3968 11.3314 16.0007C11.3314 15.3149 11.3515 14.6419 11.3898 13.9849L11.4341 13.3336H20.5661H11.4341ZM19.9259 3.43609L19.782 3.20912C23.8064 4.39708 27.0384 7.43256 28.496 11.3335L22.3748 11.3339C21.9541 8.11137 21.0995 5.3438 19.9259 3.43609L19.782 3.20912L19.9259 3.43609ZM12.0558 3.2582L12.2182 3.20917C11.0438 5.00852 10.171 7.648 9.70748 10.7475L9.6254 11.3339L3.50421 11.3335C4.94217 7.4852 8.10696 4.47915 12.0558 3.2582L12.2182 3.20917L12.0558 3.2582ZM16.0001 2.66927C17.7585 2.66927 19.5276 6.05827 20.2855 10.9139L20.3479 11.3336H11.6523C12.3716 6.25469 14.1915 2.66927 16.0001 2.66927Z" fill="#202020"/>
</svg>
