<svg width="32" height="32" viewBox="0 0 32 32" fill="none" xmlns="http://www.w3.org/2000/svg">
<path d="M23.7123 14.2776C24.5074 15.0728 25.194 16.0348 25.7171 17.0575C26.0524 17.7131 25.7927 18.5164 25.1371 18.8517C24.4815 19.1871 23.6783 18.9275 23.343 18.2719C22.9431 17.4901 22.4187 16.7553 21.8266 16.1633C18.6358 12.9724 13.4624 12.9724 10.2716 16.1633C9.65151 16.7833 9.14825 17.4799 8.76063 18.2463C8.42826 18.9033 7.62614 19.1665 6.96903 18.8343C6.31193 18.5019 6.04869 17.6997 6.38106 17.0427C6.89569 16.0252 7.56539 15.0983 8.38598 14.2776C12.6182 10.0454 19.48 10.0454 23.7123 14.2776ZM20.9803 18.2664C21.5944 18.8805 22.098 19.6324 22.4487 20.4324C22.7442 21.1069 22.437 21.8932 21.7626 22.1888C21.0882 22.4844 20.3018 22.1772 20.0062 21.5027C19.7858 20.9996 19.468 20.5255 19.0947 20.152C17.4115 18.4688 14.6824 18.4688 12.9992 20.152C12.6282 20.5231 12.3255 20.9772 12.103 21.4856C11.8078 22.1603 11.0216 22.4679 10.347 22.1727C9.67235 21.8775 9.36475 21.0913 9.65994 20.4167C10.012 19.6121 10.5001 18.8799 11.1136 18.2664C13.8382 15.5417 18.2556 15.5417 20.9803 18.2664ZM27.2258 11.0648C27.9031 11.7421 28.5416 12.5148 29.0975 13.3202C29.5158 13.9263 29.3635 14.7567 28.7575 15.1749C28.1515 15.5932 27.3211 15.4409 26.9028 14.8349C26.4366 14.1593 25.9007 13.5111 25.3402 12.9504C20.1771 7.78736 11.806 7.78736 6.64294 12.9504C6.11071 13.4827 5.58026 14.1313 5.09566 14.8299C4.67593 15.4348 3.84518 15.5851 3.24014 15.1653C2.6351 14.7456 2.48487 13.9148 2.90462 13.3098C3.4753 12.4872 4.1053 11.7168 4.75733 11.0648C10.9618 4.86033 21.0212 4.86033 27.2258 11.0648ZM17.4154 21.9216C18.197 22.7032 18.197 23.9704 17.4154 24.752C16.6338 25.5336 15.3666 25.5336 14.585 24.752C13.8034 23.9704 13.8034 22.7032 14.585 21.9216C15.3666 21.14 16.6338 21.14 17.4154 21.9216Z" fill="#202020"/>
</svg>
