<svg width="32" height="32" viewBox="0 0 32 32" fill="none" xmlns="http://www.w3.org/2000/svg">
<path d="M13.4901 4.49544C14.591 2.50151 17.409 2.50153 18.5099 4.49544L29.626 24.6279C30.7058 26.5836 29.3185 29 27.1161 29H4.88392C2.68142 29 1.29422 26.5836 2.37402 24.6279L13.4901 4.49544ZM16.0012 11.4627C15.4711 11.4627 15.0413 11.9006 15.0413 12.4407V18.9601C15.0413 19.5002 15.4711 19.938 16.0012 19.938C16.5314 19.938 16.9611 19.5002 16.9611 18.9601V12.4407C16.9611 11.9006 16.5314 11.4627 16.0012 11.4627ZM17.2811 23.1977C17.2811 22.4776 16.7081 21.8938 16.0012 21.8938C15.2943 21.8938 14.7213 22.4776 14.7213 23.1977C14.7213 23.9178 15.2943 24.5016 16.0012 24.5016C16.7081 24.5016 17.2811 23.9178 17.2811 23.1977Z" fill="#C4BE41"/>
</svg>
