<svg width="32" height="32" viewBox="0 0 32 32" fill="none" xmlns="http://www.w3.org/2000/svg">
<path d="M16 2.66667C23.3637 2.66667 29.3333 8.6362 29.3333 16C29.3333 23.3637 23.3637 29.3333 16 29.3333C8.6362 29.3333 2.66666 23.3637 2.66666 16C2.66666 8.6362 8.6362 2.66667 16 2.66667ZM10.3333 15C9.78105 15 9.33333 15.4477 9.33333 16C9.33333 16.5063 9.70953 16.9247 10.1976 16.9909L10.3333 17C17.6143 17 15.0043 17 21.6667 17C22.2189 17 22.6667 16.5523 22.6667 16C22.6667 15.4937 22.2904 15.0753 21.8024 15.0091L21.6667 15C14.7405 15 17.9247 15 10.3333 15Z" fill="#202020"/>
</svg>
