<svg width="32" height="32" viewBox="0 0 32 32" fill="none" xmlns="http://www.w3.org/2000/svg">
<path d="M9.14286 3.42857H7.14286C5.09151 3.42857 3.42857 5.09151 3.42857 7.14286V24.8571C3.42857 26.8123 4.9393 28.4147 6.85714 28.5606V18.5714C6.85714 17.1513 8.00841 16 9.42857 16H22.5714C23.9915 16 25.1429 17.1513 25.1429 18.5714V28.5606C27.0607 28.4147 28.5714 26.8123 28.5714 24.8571V10.0406C28.5714 9.05552 28.1801 8.11078 27.4835 7.41422L24.5858 4.51646C23.8893 3.8199 22.9445 3.42857 21.9594 3.42857H21.7143V10C21.7143 11.4202 20.563 12.5714 19.1429 12.5714H11.7143C10.2941 12.5714 9.14286 11.4202 9.14286 10V3.42857ZM20 3.42857H10.8571V10C10.8571 10.4734 11.2409 10.8571 11.7143 10.8571H19.1429C19.6162 10.8571 20 10.4734 20 10V3.42857ZM23.4286 28.5714V18.5714C23.4286 18.0981 23.0448 17.7143 22.5714 17.7143H9.42857C8.95519 17.7143 8.57143 18.0981 8.57143 18.5714V28.5714H23.4286Z" fill="#202020"/>
</svg>
