<svg width="32" height="32" viewBox="0 0 32 32" fill="none" xmlns="http://www.w3.org/2000/svg">
<path d="M16 2.66667V10.6667C16 12.1394 17.1939 13.3333 18.6667 13.3333H26.6667V26.6667C26.6667 28.1395 25.4728 29.3333 24 29.3333H14.9205C16.4149 27.7761 17.3333 25.662 17.3333 23.3333C17.3333 18.5468 13.4532 14.6667 8.66667 14.6667C7.48547 14.6667 6.35946 14.9029 5.33334 15.3309V5.33334C5.33334 3.86058 6.52724 2.66667 8 2.66667H16Z" fill="#202020"/>
<path d="M18 3.33333V10.6667C18 11.0348 18.2985 11.3333 18.6667 11.3333H26L18 3.33333Z" fill="#202020"/>
<path d="M16 23.3333C16 27.3835 12.7168 30.6667 8.66667 30.6667C4.61658 30.6667 1.33334 27.3835 1.33334 23.3333C1.33334 19.2832 4.61658 16 8.66667 16C12.7168 16 16 19.2832 16 23.3333ZM4.66667 22.6667C4.29848 22.6667 4 22.9652 4 23.3333C4 23.7015 4.29848 24 4.66667 24H11.0572L8.86194 26.1952C8.60158 26.4556 8.60158 26.8777 8.86194 27.1381C9.12228 27.3984 9.54439 27.3984 9.80474 27.1381L13.1381 23.8048C13.3984 23.5444 13.3984 23.1223 13.1381 22.8619L9.80474 19.5285C9.54439 19.2683 9.12228 19.2683 8.86194 19.5285C8.60158 19.7889 8.60159 20.2111 8.86194 20.4715L11.0572 22.6667H4.66667Z" fill="#202020"/>
</svg>
