<svg width="32" height="32" viewBox="0 0 32 32" fill="none" xmlns="http://www.w3.org/2000/svg">
<path d="M18.428 8.66666H26.3333C27.8489 8.66666 29.1021 9.79062 29.3047 11.2505L29.3264 11.4613L29.3333 11.6667V23.6667C29.3333 25.2545 28.0997 26.5541 26.5387 26.6597L26.3333 26.6667H5.66666C4.07885 26.6667 2.77914 25.4331 2.67358 23.872L2.66666 23.6667V13.9987L10.9426 14L11.2045 13.9885C11.7253 13.9429 12.2253 13.7619 12.6546 13.4636L12.8631 13.3047L18.428 8.66666ZM10.9426 5.33333C11.5567 5.33333 12.1537 5.52171 12.6546 5.86979L12.8631 6.02866L15.6667 8.36399L11.5827 11.7682L11.4696 11.8498C11.3515 11.9231 11.2194 11.9709 11.0817 11.9903L10.9426 12L2.66666 11.9987V8.33333C2.66666 6.74551 3.90021 5.44581 5.46126 5.34025L5.66666 5.33333H10.9426Z" fill="#202020"/>
</svg>
