<svg width="32" height="32" viewBox="0 0 32 32" fill="none" xmlns="http://www.w3.org/2000/svg">
<path d="M14.6919 22.6667H3.99999L3.8445 22.6756C3.18138 22.7527 2.66666 23.3163 2.66666 24C2.66666 24.7364 3.26362 25.3333 3.99999 25.3333H14.8985C14.7469 24.6913 14.6667 24.0217 14.6667 23.3333C14.6667 23.1091 14.6752 22.8867 14.6919 22.6667ZM28 14.6667H3.99999C3.26362 14.6667 2.66666 14.0697 2.66666 13.3333C2.66666 12.6496 3.18138 12.086 3.8445 12.009L3.99999 12H28C28.7364 12 29.3333 12.597 29.3333 13.3333C29.3333 14.0171 28.8187 14.5807 28.1555 14.6577L28 14.6667ZM3.99999 20H15.3309C15.7465 19.0032 16.3431 18.1007 17.0795 17.3333H3.99999L3.8445 17.3423C3.18138 17.4193 2.66666 17.9829 2.66666 18.6667C2.66666 19.4031 3.26362 20 3.99999 20ZM28 6.66667H3.99999L3.8445 6.67565C3.18138 6.75266 2.66666 7.31622 2.66666 8.00001C2.66666 8.73638 3.26362 9.33334 3.99999 9.33334H28L28.1555 9.32436C28.8187 9.24735 29.3333 8.68379 29.3333 8.00001C29.3333 7.26363 28.7364 6.66667 28 6.66667ZM19.0376 18.6339L18.7735 17.7189C19.3592 17.2091 20.0257 16.7956 20.7505 16.502L21.4156 17.2017C22.4667 18.3079 24.2296 18.3081 25.2811 17.2024L25.9385 16.5111C26.6647 16.8081 27.332 17.2257 27.9175 17.7401L27.6692 18.5812C27.2375 20.0447 28.1192 21.5713 29.6025 21.9285L30.3212 22.1016C30.3865 22.502 30.4207 22.9135 30.4207 23.3331C30.4207 23.7341 30.3896 24.1277 30.3296 24.5113L29.5513 24.704C28.0827 25.0673 27.2101 26.5785 27.6297 28.0323L27.8939 28.9468C27.3081 29.4567 26.6415 29.8703 25.9167 30.164L25.2517 29.4643C24.2008 28.3583 22.4377 28.358 21.3863 29.4636L20.7285 30.1553C20.0025 29.8583 19.3352 29.4407 18.7497 28.9265L18.9981 28.0848C19.43 26.6215 18.5481 25.0948 17.0648 24.7376L16.3456 24.5643C16.2801 24.164 16.2461 23.7527 16.2461 23.3331C16.2461 22.932 16.2772 22.5384 16.3371 22.1548L17.116 21.9621C18.5848 21.5988 19.4573 20.0875 19.0376 18.6339ZM23.3333 25.3331C24.4009 25.3331 25.2663 24.4376 25.2663 23.3331C25.2663 22.2285 24.4009 21.3331 23.3333 21.3331C22.2659 21.3331 21.4005 22.2285 21.4005 23.3331C21.4005 24.4376 22.2659 25.3331 23.3333 25.3331Z" fill="#202020"/>
</svg>
