<svg width="32" height="32" viewBox="0 0 32 32" fill="none" xmlns="http://www.w3.org/2000/svg">
<path d="M8.16667 25.6667H23.8333C24.4777 25.6667 25 26.189 25 26.8333C25 27.4455 24.5286 27.9475 23.929 27.9961L23.8333 28H8.16667C7.52233 28 7 27.4777 7 26.8333C7 26.2212 7.4714 25.7192 8.071 25.6705L8.16667 25.6667H23.8333H8.16667ZM15.7377 4.17053L15.8333 4.16666C16.4455 4.16666 16.9475 4.63807 16.9961 5.23764L17 5.33333V19.5553L20.1954 16.3605C20.651 15.9049 21.3897 15.9049 21.8453 16.3605C22.3009 16.8161 22.3009 17.5548 21.8453 18.0104L16.6599 23.1959C16.2043 23.6515 15.4656 23.6515 15.01 23.1959L9.82453 18.0104C9.36893 17.5548 9.36893 16.8161 9.82453 16.3605C10.2801 15.9049 11.0188 15.9049 11.4745 16.3605L14.6667 19.5527V5.33333C14.6667 4.72122 15.1381 4.2192 15.7377 4.17053L15.8333 4.16666L15.7377 4.17053Z" fill="#107c10"/>
</svg>
