<svg width="32" height="32" viewBox="0 0 32 32" fill="none" xmlns="http://www.w3.org/2000/svg">
<path d="M14.6723 16.018L4.0506 6.46425C3.31647 5.80392 3.31647 4.73616 4.0506 4.08286L5.8157 2.49525C6.54984 1.83492 7.73697 1.83492 8.4633 2.49525L15.9922 9.26714L23.5211 2.49525C24.2552 1.83492 25.4424 1.83492 26.1687 2.49525L27.9494 4.07582C28.6835 4.73616 28.6835 5.80392 27.9494 6.45723L17.3277 16.011C16.5936 16.6783 15.4065 16.6783 14.6723 16.0184V16.018ZM17.3277 29.5056L27.9494 19.9519C28.6835 19.2915 28.6835 18.2238 27.9494 17.5705L26.1843 15.9828C25.4502 15.3225 24.263 15.3225 23.5367 15.9828L16 22.7477L8.47111 15.9758C7.73697 15.3155 6.54984 15.3155 5.82349 15.9758L4.0506 17.5634C3.31647 18.2238 3.31647 19.2915 4.0506 19.9448L14.6723 29.4985C15.4065 30.1659 16.5936 30.1659 17.3277 29.5059V29.5056Z" fill="#39A564"/>
</svg>
