<svg width="32" height="32" viewBox="0 0 32 32" fill="none" xmlns="http://www.w3.org/2000/svg">
<path d="M13.4286 2.28572C12.9552 2.28572 12.5714 2.66948 12.5714 3.14286C12.5714 3.61624 12.9552 4 13.4286 4H15.1429V28H13.4286C12.9552 28 12.5714 28.3838 12.5714 28.8571C12.5714 29.3305 12.9552 29.7143 13.4286 29.7143H18.5714C19.0448 29.7143 19.4286 29.3305 19.4286 28.8571C19.4286 28.3838 19.0448 28 18.5714 28H16.8571V4H18.5714C19.0448 4 19.4286 3.61624 19.4286 3.14286C19.4286 2.66948 19.0448 2.28572 18.5714 2.28572H13.4286ZM7.14286 6.87953H14V25.1653H7.14286C5.09151 25.1653 3.42857 23.5023 3.42857 21.451V10.5938C3.42857 8.54248 5.09151 6.87953 7.14286 6.87953ZM24.8571 25.1653H18V6.87953H24.8571C26.9085 6.87953 28.5714 8.54248 28.5714 10.5938V21.451C28.5714 23.5023 26.9085 25.1653 24.8571 25.1653Z" fill="#202020"/>
</svg>
