<svg width="32" height="32" viewBox="0 0 32 32" fill="none" xmlns="http://www.w3.org/2000/svg">
<path d="M7.33707 6.16939L7.33334 9V23.0056C7.33334 25.3988 9.27343 27.3389 11.6667 27.3389L23.1551 27.3393C22.7431 28.5043 21.632 29.3389 20.3259 29.3389H11.6667C8.16887 29.3389 5.33334 26.5035 5.33334 23.0056V9C5.33334 7.69239 6.16994 6.58016 7.33707 6.16939ZM23.6667 2.66667C25.3235 2.66667 26.6667 4.00981 26.6667 5.66667V23C26.6667 24.6568 25.3235 26 23.6667 26H11.6667C10.0098 26 8.66667 24.6568 8.66667 23V5.66667C8.66667 4.00981 10.0098 2.66667 11.6667 2.66667H23.6667Z" fill="#202020"/>
</svg>
