<svg width="32" height="32" viewBox="0 0 32 32" fill="none" xmlns="http://www.w3.org/2000/svg">
<path d="M6.33333 16C6.33333 20.9907 10.1152 25.098 14.9695 25.6124C15.2379 26.5997 15.6764 27.5171 16.2517 28.3308C16.168 28.3325 16.0841 28.3333 16 28.3333C9.18849 28.3333 3.66666 22.8115 3.66666 16C3.66666 15.4899 3.69762 14.9871 3.75778 14.4932C3.84092 13.8108 4.4453 13.3333 5.1328 13.3333C5.9209 13.3333 6.48898 14.0913 6.39818 14.8741C6.35536 15.2435 6.33333 15.6192 6.33333 16ZM17.0795 17.3333C18.1139 16.2553 19.4244 15.4443 20.8972 15.0137C20.6604 14.7981 20.3456 14.6667 20 14.6667H17.3333V10.6667C17.3333 9.9303 16.7364 9.33334 16 9.33334C15.2636 9.33334 14.6667 9.9303 14.6667 10.6667V16C14.6667 16.7364 15.2636 17.3333 16 17.3333H17.0795ZM28.3308 16.2517C27.5171 15.6764 26.5997 15.2379 25.6124 14.9695C25.098 10.1152 20.9907 6.33334 16 6.33334C13.7839 6.33334 11.7419 7.0791 10.1114 8.33334H11C11.7364 8.33334 12.3333 8.9303 12.3333 9.66667C12.3333 10.403 11.7364 11 11 11H7C6.26362 11 5.66666 10.403 5.66666 9.66667V9.33334H5.62196L5.66666 9.26439V5.66667C5.66666 4.9303 6.26362 4.33334 7 4.33334C7.73637 4.33334 8.33333 4.9303 8.33333 5.66667V6.33847C10.4383 4.66586 13.1025 3.66667 16 3.66667C22.8115 3.66667 28.3333 9.1885 28.3333 16C28.3333 16.0841 28.3325 16.168 28.3308 16.2517ZM30.6667 23.3333C30.6667 27.3835 27.3835 30.6667 23.3333 30.6667C19.2832 30.6667 16 27.3835 16 23.3333C16 19.2832 19.2832 16 23.3333 16C27.3835 16 30.6667 19.2832 30.6667 23.3333ZM21.1381 20.1952C20.8777 19.9349 20.4556 19.9349 20.1952 20.1952C19.9349 20.4556 19.9349 20.8777 20.1952 21.1381L22.3905 23.3333L20.1952 25.5285C19.9349 25.7889 19.9349 26.2111 20.1952 26.4715C20.4556 26.7317 20.8777 26.7317 21.1381 26.4715L23.3333 24.2761L25.5285 26.4715C25.7889 26.7317 26.2111 26.7317 26.4715 26.4715C26.7317 26.2111 26.7317 25.7889 26.4715 25.5285L24.2761 23.3333L26.4715 21.1381C26.7317 20.8777 26.7317 20.4556 26.4715 20.1952C26.2111 19.9349 25.7889 19.9349 25.5285 20.1952L23.3333 22.3905L21.1381 20.1952Z" fill="#202020"/>
</svg>
