<svg width="32" height="32" viewBox="0 0 32 32" fill="none" xmlns="http://www.w3.org/2000/svg">
<path d="M16 2C23.7322 2 30 8.2692 30 16C30 23.7308 23.7322 30 16 30C8.2678 30 2 23.7308 2 16C2 8.2692 8.2678 2 16 2ZM16.0025 20.2052C15.2304 20.2052 14.6043 20.8311 14.6043 21.6034C14.6043 22.3755 15.2304 23.0014 16.0025 23.0014C16.7746 23.0014 17.4007 22.3755 17.4007 21.6034C17.4007 20.8311 16.7746 20.2052 16.0025 20.2052ZM15.9994 9C15.2815 9.00025 14.69 9.54093 14.6094 10.2372L14.6 10.4005L14.6025 17.4017L14.612 17.5651C14.6931 18.2613 15.285 18.8015 16.0031 18.8013C16.721 18.801 17.3125 18.2603 17.3931 17.5639L17.4025 17.4007L17.4 10.3995L17.3905 10.2362C17.3094 9.53998 16.7175 8.99975 15.9994 9Z" fill="#b10e1c"/>
</svg>
