<svg width="32" height="32" viewBox="0 0 32 32" fill="none" xmlns="http://www.w3.org/2000/svg">
<path d="M13.4737 11.625C13.4737 16.9408 17.6209 21.25 22.7368 21.25C27.8528 21.25 32 16.9408 32 11.625C32 6.30925 27.8528 2 22.7368 2C17.6209 2 13.4737 6.30925 13.4737 11.625ZM27.7895 5.5C28.2545 5.5 28.6316 5.89176 28.6316 6.375V9.875C28.6316 10.3582 28.2545 10.75 27.7895 10.75H24.4211C23.956 10.75 23.5789 10.3582 23.5789 9.875C23.5789 9.39176 23.956 9 24.4211 9H26.1058C25.3366 7.93607 24.1135 7.25 22.7368 7.25C21.3332 7.25 20.0898 7.96284 19.3235 9.063C19.0506 9.45446 18.5241 9.54208 18.1474 9.25874C17.7708 8.97538 17.6864 8.42833 17.9591 8.03687C19.0285 6.50163 20.7702 5.5 22.7368 5.5C24.387 5.5 25.8781 6.20472 26.9474 7.33852V6.375C26.9474 5.89176 27.3245 5.5 27.7895 5.5ZM18.5263 15.9114V16.875C18.5263 17.3582 18.1492 17.75 17.6842 17.75C17.2192 17.75 16.8421 17.3582 16.8421 16.875V13.375C16.8421 12.8918 17.2192 12.5 17.6842 12.5H21.0526C21.5176 12.5 21.8947 12.8918 21.8947 13.375C21.8947 13.8582 21.5176 14.25 21.0526 14.25H19.3681C20.1371 15.3139 21.3603 16 22.7368 16C24.0275 16 25.182 15.3977 25.9557 14.4456C26.2557 14.0764 26.787 14.0298 27.1424 14.3416C27.4978 14.6534 27.5426 15.2054 27.2424 15.5747C26.1625 16.9037 24.5443 17.75 22.7368 17.75C21.0868 17.75 19.5956 17.0453 18.5263 15.9114ZM6.73684 21.25H16.8999C15.5379 20.3564 14.3788 19.1593 13.5104 17.75H6.73684L6.54043 17.7617C5.7028 17.8629 5.05263 18.6026 5.05263 19.5C5.05263 20.4665 5.80669 21.25 6.73684 21.25ZM1.68421 9H12.0824C11.8909 9.84266 11.7895 10.7215 11.7895 11.625C11.7895 11.9194 11.8003 12.2112 11.8213 12.5H1.68421C0.754055 12.5 0 11.7165 0 10.75C0 9.85253 0.650173 9.11286 1.4878 9.01178L1.68421 9ZM9.90885 26.5117L10.1053 26.5H16.8421C17.7723 26.5 18.5263 27.2835 18.5263 28.25C18.5263 29.1474 17.8762 29.8871 17.0385 29.9883L16.8421 30H10.1053C9.17511 30 8.42105 29.2165 8.42105 28.25C8.42105 27.3526 9.07123 26.6129 9.90885 26.5117Z" fill="#202020"/>
</svg>
