<?xml version="1.0" encoding="utf-8"?>
<!-- Generator: Adobe Illustrator 27.2.0, SVG Export Plug-In . SVG Version: 6.00 Build 0)  -->
<svg version="1.1" id="Layer_1" xmlns="http://www.w3.org/2000/svg" xmlns:xlink="http://www.w3.org/1999/xlink" x="0px" y="0px"
	 viewBox="0 0 32 32" style="enable-background:new 0 0 32 32;" xml:space="preserve">
<style type="text/css">
	.st0{fill:#202020;}
</style>
<g>
	<path class="st0" d="M13.5,17.8H6.7l-0.2,0c-0.8,0.1-1.5,0.8-1.5,1.7c0,1,0.8,1.8,1.7,1.8h10.2C15.5,20.4,14.4,19.2,13.5,17.8z"/>
	<path class="st0" d="M11.8,11.6c0-0.9,0.1-1.8,0.3-2.6H1.7L1.5,9C0.7,9.1,0,9.9,0,10.8c0,1,0.8,1.8,1.7,1.8h10.1
		C11.8,12.2,11.8,11.9,11.8,11.6z"/>
	<path class="st0" d="M16.8,26.5h-6.7l-0.2,0c-0.8,0.1-1.5,0.8-1.5,1.7c0,1,0.8,1.8,1.7,1.8h6.7l0.2,0c0.8-0.1,1.5-0.8,1.5-1.7
		C18.5,27.3,17.8,26.5,16.8,26.5z"/>
	<path class="st0" d="M22.7,2c-5.1,0-9.3,4.3-9.3,9.6c0,5.3,4.1,9.6,9.3,9.6c5.1,0,9.3-4.3,9.3-9.6C32,6.3,27.9,2,22.7,2z M27.8,9.2
		l-5.8,6c-0.3,0.3-0.8,0.3-1.1,0l-2.9-3c-0.3-0.3-0.3-0.8,0-1.2c0.3-0.3,0.8-0.3,1.1,0l2.4,2.4L26.7,8c0.3-0.3,0.8-0.3,1.1,0
		C28.1,8.4,28.1,8.9,27.8,9.2z"/>
</g>
</svg>
