<svg width="32" height="32" viewBox="0 0 32 32" fill="none" xmlns="http://www.w3.org/2000/svg">
<path d="M6 4.4C6 3.73726 6.53726 3.2 7.2 3.2H9.3C9.96274 3.2 10.5 3.73726 10.5 4.4C10.5 5.06273 9.96274 5.6 9.3 5.6H7.2C6.53726 5.6 6 5.06273 6 4.4ZM12.3 4.4C12.3 3.73726 12.8373 3.2 13.5 3.2H17.7C18.3627 3.2 18.9 3.73726 18.9 4.4C18.9 5.06273 18.3627 5.6 17.7 5.6H13.5C12.8373 5.6 12.3 5.06273 12.3 4.4ZM20.7 4.4C20.7 3.73726 21.2373 3.2 21.9 3.2H24C24.6627 3.2 25.2 3.73726 25.2 4.4C25.2 5.06273 24.6627 5.6 24 5.6H21.9C21.2373 5.6 20.7 5.06273 20.7 4.4ZM6 27.6C6 26.9373 6.53726 26.4 7.2 26.4H24C24.6627 26.4 25.2 26.9373 25.2 27.6C25.2 28.2627 24.6627 28.8 24 28.8H7.2C6.53726 28.8 6 28.2627 6 27.6ZM16.4485 7.55147C15.9799 7.08284 15.2201 7.08284 14.7515 7.55147L7.95147 14.3515C7.48285 14.8201 7.48285 15.5799 7.95147 16.0485C8.4201 16.5171 9.1799 16.5171 9.64853 16.0485L14.4 11.2971V22.8C14.4 23.4627 14.9373 24 15.6 24C16.2627 24 16.8 23.4627 16.8 22.8V11.2971L21.5515 16.0485C22.0202 16.5171 22.7798 16.5171 23.2485 16.0485C23.7171 15.5799 23.7171 14.8201 23.2485 14.3515L16.4485 7.55147Z" fill="#202020"/>
</svg>
