<?xml version="1.0" encoding="utf-8"?>
<!-- Generator: Adobe Illustrator 27.2.0, SVG Export Plug-In . SVG Version: 6.00 Build 0)  -->
<svg version="1.1" id="Layer_1" xmlns="http://www.w3.org/2000/svg" xmlns:xlink="http://www.w3.org/1999/xlink" x="0px" y="0px"
	 viewBox="0 0 32 32" style="enable-background:new 0 0 32 32;" xml:space="preserve">
<style type="text/css">
	.st0{fill:#202020;}
</style>
<path class="st0" d="M10.1,2C8.6,2,7.4,3.2,7.4,4.7v2.7H4.7C3.2,7.4,2,8.6,2,10.1c0,1.5,1.2,2.7,2.7,2.7h2.7v6.3H4.7
	c-1.5,0-2.7,1.2-2.7,2.7s1.2,2.7,2.7,2.7h2.7v2.7c0,1.5,1.2,2.7,2.7,2.7c1.5,0,2.7-1.2,2.7-2.7v-2.7h6.3v2.7c0,1.5,1.2,2.7,2.7,2.7
	c1.5,0,2.7-1.2,2.7-2.7v-2.7h2.7c1.5,0,2.7-1.2,2.7-2.7s-1.2-2.7-2.7-2.7h-2.7v-6.3h2.7c1.5,0,2.7-1.2,2.7-2.7
	c0-1.5-1.2-2.7-2.7-2.7h-2.7V4.7c0-1.5-1.2-2.7-2.7-2.7c-1.5,0-2.7,1.2-2.7,2.7v2.7h-6.3V4.7C12.9,3.2,11.6,2,10.1,2z M11.6,11.6
	h8.7v8.7h-8.7V11.6z"/>
</svg>
