<svg width="32" height="32" viewBox="0 0 32 32" fill="none" xmlns="http://www.w3.org/2000/svg">
<path d="M16 2.66666V10.1667C16 11.5474 17.1193 12.6667 18.5 12.6667H26.6667V26.6667C26.6667 27.7713 25.7713 28.6667 24.6667 28.6667H15.4985C16.6481 27.1961 17.3333 25.3447 17.3333 23.3333C17.3333 18.5469 13.4531 14.6667 8.66667 14.6667C7.48547 14.6667 6.35945 14.903 5.33333 15.3309V4.66666C5.33333 3.56209 6.22877 2.66666 7.33333 2.66666H16ZM17.6667 2.97618V10.1667C17.6667 10.6269 18.0397 11 18.5 11H26.3077L17.6667 2.97618ZM16 23.3333C16 27.3834 12.7167 30.6667 8.66667 30.6667C4.61658 30.6667 1.33333 27.3834 1.33333 23.3333C1.33333 19.2833 4.61658 16 8.66667 16C12.7167 16 16 19.2833 16 23.3333ZM9.33333 18.6667C9.33333 18.2985 9.03487 18 8.66667 18C8.29847 18 8 18.2985 8 18.6667V22.6667H4C3.63181 22.6667 3.33333 22.9651 3.33333 23.3333C3.33333 23.7015 3.63181 24 4 24H8V28C8 28.3682 8.29847 28.6667 8.66667 28.6667C9.03487 28.6667 9.33333 28.3682 9.33333 28V24H13.3333C13.7015 24 14 23.7015 14 23.3333C14 22.9651 13.7015 22.6667 13.3333 22.6667H9.33333V18.6667Z" fill="#202020"/>
</svg>
