<svg width="32" height="32" viewBox="0 0 32 32" fill="none" xmlns="http://www.w3.org/2000/svg">
<path d="M4.03363 12.3821L15.5754 19.2171C15.8373 19.3721 16.1627 19.3721 16.4246 19.2171L27.9665 12.3828C27.9887 12.5418 28 12.7034 28 12.8667V23.1667C28 24.7315 26.7315 26 25.1667 26H6.83333C5.26853 26 4 24.7315 4 23.1667V12.8667C4 12.7032 4.0114 12.5414 4.03363 12.3821ZM16.4192 4.11312L26.2607 9.8418C26.6913 10.0924 27.0557 10.4271 27.3379 10.8181L16 17.5315L4.66213 10.8181C4.94434 10.4271 5.30867 10.0924 5.73926 9.8418L15.5808 4.11312C15.8399 3.96229 16.1601 3.96229 16.4192 4.11312Z" fill="#202020"/>
</svg>
