<svg width="32" height="32" viewBox="0 0 32 32" fill="none" xmlns="http://www.w3.org/2000/svg">
<path d="M26.1152 14.3929L26.4002 14.4L26.693 14.3925L27.0733 14.36L27.2018 14.3431L27.2002 20.4722C27.2002 22.2552 27.0146 22.9018 26.6659 23.5538C26.3173 24.2056 25.8058 24.7171 25.1539 25.0658C24.5021 25.4144 23.8555 25.6 22.0725 25.6H8.32795C6.54491 25.6 5.89834 25.4144 5.24648 25.0658C4.59462 24.7171 4.08306 24.2056 3.73445 23.5538C3.40907 22.9453 3.22565 22.3414 3.20264 20.8141L3.2 11.6938L14.8432 17.5155C15.0684 17.6282 15.3335 17.6282 15.5587 17.5155L23.4582 13.5659C23.9899 13.8948 24.5808 14.1372 25.211 14.2735L25.5987 14.3431L25.8035 14.3686L26.1152 14.3929ZM7.98616 6.40247L21.3394 6.39941L21.2592 6.57541L21.1483 6.85181C21.0894 7.0105 21.0378 7.17194 20.9934 7.33637L20.911 7.68575L20.8845 7.82627L20.8568 8.00109C20.8194 8.26419 20.8002 8.52986 20.8002 8.8C20.8002 10.0597 21.2162 11.2223 21.9182 12.1579L22.14 12.4348L15.2009 15.9056L3.55792 10.0845C3.46546 10.0382 3.36832 10.0116 3.27122 10.0029C3.35326 9.28303 3.51011 8.86576 3.73445 8.44631C4.08306 7.79447 4.59462 7.28288 5.24648 6.93427C5.85488 6.6089 6.45867 6.42548 7.98616 6.40247ZM26.4002 4.8C28.6093 4.8 30.4002 6.59087 30.4002 8.8C30.4002 11.0091 28.6093 12.8 26.4002 12.8C24.191 12.8 22.4002 11.0091 22.4002 8.8C22.4002 6.59087 24.191 4.8 26.4002 4.8Z" fill="#202020"/>
</svg>
