<?xml version="1.0" encoding="utf-8"?>
<!-- Generator: Adobe Illustrator 27.2.0, SVG Export Plug-In . SVG Version: 6.00 Build 0)  -->
<svg version="1.1" id="Layer_1" xmlns="http://www.w3.org/2000/svg" xmlns:xlink="http://www.w3.org/1999/xlink" x="0px" y="0px"
	 viewBox="0 0 32 32" style="enable-background:new 0 0 32 32;" xml:space="preserve">
<style type="text/css">
	.st0{fill:#202020;}
</style>
<path class="st0" d="M13.3,4.5c-0.4,0-0.8,0.1-1.1,0.4c-0.3,0.3-0.5,0.6-0.5,1v4.8c0,0.4,0.2,0.7,0.5,1c0.3,0.3,0.7,0.4,1.1,0.4h1.6
	V15H6.4c-0.6,0-1.1,0.2-1.5,0.6C4.4,16,4.2,16.4,4.2,17v2.9H2.6c-0.4,0-0.8,0.1-1.1,0.4c-0.3,0.3-0.5,0.6-0.5,1v4.8
	c0,0.4,0.2,0.7,0.5,1c0.3,0.3,0.7,0.4,1.1,0.4H8c0.4,0,0.8-0.1,1.1-0.4c0.3-0.3,0.5-0.6,0.5-1v-4.8c0-0.4-0.2-0.7-0.5-1
	S8.4,19.8,8,19.8H6.4V17h8.6v2.9h-1.6c-0.4,0-0.8,0.1-1.1,0.4c-0.3,0.3-0.5,0.6-0.5,1v4.8c0,0.4,0.2,0.7,0.5,1
	c0.3,0.3,0.7,0.4,1.1,0.4h5.4c0.4,0,0.8-0.1,1.1-0.4c0.3-0.3,0.5-0.6,0.5-1v-4.8c0-0.4-0.2-0.7-0.5-1s-0.7-0.4-1.1-0.4h-1.6V17h8.6
	v2.9H24c-0.4,0-0.8,0.1-1.1,0.4c-0.3,0.3-0.5,0.6-0.5,1v4.8c0,0.4,0.2,0.7,0.5,1c0.3,0.3,0.7,0.4,1.1,0.4h5.4c0.4,0,0.8-0.1,1.1-0.4
	c0.3-0.3,0.5-0.6,0.5-1v-4.8c0-0.4-0.2-0.7-0.5-1c-0.3-0.3-0.7-0.4-1.1-0.4h-1.6V17c0-0.5-0.2-1-0.6-1.3c-0.4-0.4-0.9-0.6-1.5-0.6
	h-8.6v-2.9h1.6c0.4,0,0.8-0.1,1.1-0.4c0.3-0.3,0.5-0.6,0.5-1V5.9c0-0.4-0.2-0.7-0.5-1c-0.3-0.3-0.7-0.4-1.1-0.4L13.3,4.5z"/>
</svg>
