<svg width="32" height="32" viewBox="0 0 32 32" fill="none" xmlns="http://www.w3.org/2000/svg">
<path d="M16 13.3333C21.8911 13.3333 26.6667 10.9455 26.6667 7.99999C26.6667 5.05447 21.8911 2.66666 16 2.66666C10.109 2.66666 5.33334 5.05447 5.33334 7.99999C5.33334 10.9455 10.109 13.3333 16 13.3333ZM24.4369 13.5601C25.2208 13.1681 25.9972 12.672 26.6667 12.0711V24C26.6667 26.9455 21.8911 29.3333 16 29.3333C10.109 29.3333 5.33334 26.9455 5.33334 24V12.0711C6.00282 12.672 6.77922 13.1681 7.56312 13.5601C9.82564 14.6913 12.8113 15.3333 16 15.3333C19.1887 15.3333 22.1744 14.6913 24.4369 13.5601Z" fill="#202020"/>
</svg>
