<svg width="32" height="32" viewBox="0 0 32 32" fill="none" xmlns="http://www.w3.org/2000/svg">
<path d="M22.3319 2.66667L28.4036 2.66737L28.5373 2.68593L28.6691 2.72274L28.7495 2.75681C28.8551 2.80329 28.954 2.87087 29.0411 2.95782L29.0953 3.01654L29.1533 3.09171L29.2256 3.21187L29.2772 3.3323L29.3027 3.41774L29.3208 3.50307L29.3333 3.62867L29.3339 9.67186C29.3339 10.2241 28.8863 10.6719 28.3339 10.6719C27.8277 10.6719 27.4093 10.2957 27.3431 9.80755L27.3339 9.67186L27.3333 6.07867L18.7476 14.6663C18.3925 15.0213 17.8369 15.0536 17.4455 14.7632L17.3333 14.6664L13.2929 10.7857L5.70711 18.3715C5.31659 18.762 4.68341 18.762 4.29289 18.3715C3.93787 18.0164 3.9056 17.4609 4.19607 17.0695L4.29289 16.9572L12.5858 8.66435C12.9408 8.30932 13.4964 8.27706 13.8879 8.56751L14 8.66434L18.0404 12.545L25.9173 4.66667H22.3319C21.8256 4.66667 21.4072 4.29047 21.3411 3.80236L21.3319 3.66667C21.3319 3.16041 21.7081 2.74202 22.1963 2.67581L22.3319 2.66667ZM5 22.6667C5.55228 22.6667 6 23.1144 6 23.6667V28.3333C6 28.8856 5.55228 29.3333 5 29.3333C4.44772 29.3333 4 28.8856 4 28.3333V23.6667C4 23.1144 4.44772 22.6667 5 22.6667ZM12.6667 18.3333C12.6667 17.7811 12.2189 17.3333 11.6667 17.3333C11.1144 17.3333 10.6667 17.7811 10.6667 18.3333V28.3333C10.6667 28.8856 11.1144 29.3333 11.6667 29.3333C12.2189 29.3333 12.6667 28.8856 12.6667 28.3333V18.3333ZM18.3333 20C18.8856 20 19.3333 20.4477 19.3333 21V28.3333C19.3333 28.8856 18.8856 29.3333 18.3333 29.3333C17.7811 29.3333 17.3333 28.8856 17.3333 28.3333V21C17.3333 20.4477 17.7811 20 18.3333 20ZM26 14.3333C26 13.7811 25.5523 13.3333 25 13.3333C24.4477 13.3333 24 13.7811 24 14.3333V28.3333C24 28.8856 24.4477 29.3333 25 29.3333C25.5523 29.3333 26 28.8856 26 28.3333V14.3333Z" fill="#202020"/>
</svg>
