<svg width="32" height="32" viewBox="0 0 32 32" fill="none" xmlns="http://www.w3.org/2000/svg">
<path d="M10.8571 14.8571C13.6975 14.8571 16 12.5546 16 9.71428C16 6.87396 13.6975 4.57143 10.8571 4.57143C8.01682 4.57143 5.71428 6.87396 5.71428 9.71428C5.71428 12.5546 8.01682 14.8571 10.8571 14.8571ZM26.8571 10.8571C26.8571 13.0663 25.0663 14.8571 22.8571 14.8571C20.648 14.8571 18.8571 13.0663 18.8571 10.8571C18.8571 8.648 20.648 6.85714 22.8571 6.85714C25.0663 6.85714 26.8571 8.648 26.8571 10.8571ZM2.28571 19.7143C2.28571 18.2942 3.43698 17.1429 4.85714 17.1429H16.8571C17.0833 17.1429 17.3027 17.1721 17.5118 17.227C15.8761 18.7878 14.8571 20.9891 14.8571 23.4286C14.8571 24.188 14.9559 24.9243 15.1413 25.6256C14.0277 26.0306 12.6246 26.2857 10.8571 26.2857C2.28571 26.2857 2.28571 20.2857 2.28571 20.2857V19.7143ZM30.8571 23.4286C30.8571 27.5313 27.5313 30.8571 23.4286 30.8571C19.3258 30.8571 16 27.5313 16 23.4286C16 19.3258 19.3258 16 23.4286 16C27.5313 16 30.8571 19.3258 30.8571 23.4286ZM24 18.8571C24 18.5416 23.7441 18.2857 23.4286 18.2857C23.113 18.2857 22.8571 18.5416 22.8571 18.8571V22.8571H18.8571C18.5416 22.8571 18.2857 23.113 18.2857 23.4286C18.2857 23.7441 18.5416 24 18.8571 24H22.8571V28C22.8571 28.3155 23.113 28.5714 23.4286 28.5714C23.7441 28.5714 24 28.3155 24 28V24H28C28.3155 24 28.5714 23.7441 28.5714 23.4286C28.5714 23.113 28.3155 22.8571 28 22.8571H24V18.8571Z" fill="#202020"/>
</svg>
