<svg width="32" height="32" viewBox="0 0 32 32" fill="none" xmlns="http://www.w3.org/2000/svg">
<path d="M28 7.66667C28 5.64163 26.3584 4 24.3333 4H7.66667C5.64163 4 4 5.64163 4 7.66667V24.3333C4 26.3584 5.64163 28 7.66667 28H16.0291C15.1667 26.6529 14.6667 25.0515 14.6667 23.3333C14.6667 23.1091 14.6752 22.8867 14.6919 22.6667H9C8.44772 22.6667 8 22.2189 8 21.6667C8 21.1604 8.3762 20.742 8.86431 20.6757L9 20.6667H15.0847C15.4925 19.4041 16.1821 18.2684 17.0795 17.3333H9C8.44772 17.3333 8 16.8856 8 16.3333C8 15.8271 8.3762 15.4087 8.86431 15.3424L9 15.3333H19C19.2165 15.3333 19.4169 15.4021 19.5807 15.5191C20.7161 14.9728 21.9889 14.6667 23.3333 14.6667C25.0515 14.6667 26.6529 15.1667 28 16.0291V7.66667ZM23 10C23.5523 10 24 10.4477 24 11C24 11.5063 23.6237 11.9247 23.1357 11.9909L23 12H9C8.44772 12 8 11.5523 8 11C8 10.4937 8.3762 10.0753 8.86431 10.0091L9 10H23ZM16.6669 20.838L17.2632 21.4117C18.3535 22.4608 18.3535 24.2059 17.2632 25.2549L16.6669 25.8287C16.9343 26.5933 17.3211 27.2989 17.804 27.9212L18.6065 27.6841C20.0699 27.2517 21.5968 28.1331 21.9545 29.6163L22.1847 30.5708C22.5585 30.6339 22.9423 30.6667 23.3333 30.6667C23.7244 30.6667 24.1081 30.6339 24.4819 30.5708L24.7121 29.6163C25.0699 28.1331 26.5968 27.2517 28.0601 27.6841L28.8627 27.9212C29.3456 27.2989 29.7324 26.5933 29.9997 25.8287L29.4035 25.2549C28.3132 24.2059 28.3132 22.4608 29.4035 21.4117L29.9997 20.838C29.7324 20.0733 29.3456 19.3677 28.8627 18.7455L28.0601 18.9825C26.5968 19.4149 25.0699 18.5336 24.7121 17.0504L24.4819 16.0959C24.1081 16.0328 23.7244 16 23.3333 16C22.9423 16 22.5585 16.0328 22.1847 16.0959L21.9545 17.0504C21.5968 18.5336 20.0699 19.4149 18.6065 18.9825L17.804 18.7455C17.3211 19.3677 16.9343 20.0733 16.6669 20.838ZM23.3333 25.3333C22.2659 25.3333 21.4004 24.4379 21.4004 23.3333C21.4004 22.2288 22.2659 21.3333 23.3333 21.3333C24.4008 21.3333 25.2663 22.2288 25.2663 23.3333C25.2663 24.4379 24.4008 25.3333 23.3333 25.3333Z" fill="#202020"/>
</svg>
