<svg width="32" height="32" viewBox="0 0 32 32" fill="none" xmlns="http://www.w3.org/2000/svg">
<path d="M13.9725 8C13.9725 10.2091 12.2533 12 10.1325 12C8.01172 12 6.29251 10.2091 6.29251 8C6.29251 5.79087 8.01172 4 10.1325 4C12.2533 4 13.9725 5.79087 13.9725 8ZM6.61251 13.3333C5.37539 13.3333 4.37251 14.378 4.37251 15.6667V22C4.37251 25.3137 6.95133 28 10.1325 28C13.3137 28 15.8925 25.3137 15.8925 22V15.6667C15.8925 14.378 14.8896 13.3333 13.6525 13.3333H6.61251ZM14.4335 27.8059C16.0995 26.4648 17.1724 24.3629 17.1724 22V15.6667C17.1724 14.7803 16.8704 13.9673 16.3677 13.3333H19.4124C20.6495 13.3333 21.6524 14.378 21.6524 15.6667V22C21.6524 25.3137 19.0735 28 15.8924 28C15.3883 28 14.8995 27.9325 14.4335 27.8059ZM15.2524 8C15.2524 9.33257 14.7831 10.551 14.0076 11.4858C14.5644 11.8132 15.2074 12 15.8924 12C18.0131 12 19.7324 10.2091 19.7324 8C19.7324 5.79087 18.0131 4 15.8924 4C15.2074 4 14.5644 4.18681 14.0076 4.51419C14.7831 5.44901 15.2524 6.66743 15.2524 8ZM20.1935 27.8059C21.8595 26.4648 22.9324 24.3629 22.9324 22V15.6667C22.9324 14.7803 22.6304 13.9673 22.1277 13.3333H25.1724C26.4095 13.3333 27.4124 14.378 27.4124 15.6667V22C27.4124 25.3137 24.8335 28 21.6524 28C21.1483 28 20.6595 27.9325 20.1935 27.8059ZM21.0124 8C21.0124 9.33257 20.5431 10.551 19.7676 11.4858C20.3244 11.8132 20.9674 12 21.6524 12C23.7731 12 25.4924 10.2091 25.4924 8C25.4924 5.79087 23.7731 4 21.6524 4C20.9674 4 20.3244 4.18681 19.7676 4.51419C20.5431 5.44901 21.0124 6.66743 21.0124 8Z" fill="#202020"/>
</svg>
