<svg width="32" height="32" viewBox="0 0 32 32" fill="none" xmlns="http://www.w3.org/2000/svg">
<path d="M7 5.33333C4.60676 5.33333 2.66667 7.27342 2.66667 9.66666V22.3333C2.66667 24.7265 4.60676 26.6667 7 26.6667H25C27.3932 26.6667 29.3333 24.7265 29.3333 22.3333V9.66666C29.3333 7.27342 27.3932 5.33333 25 5.33333H7ZM11.3334 11.6667V20.3333C11.3334 20.8856 10.8857 21.3333 10.3334 21.3333C9.78116 21.3333 9.33344 20.8856 9.33344 20.3333V13.5352L8.88813 13.832C8.42861 14.1384 7.80775 14.0143 7.50139 13.5547C7.19504 13.0952 7.31921 12.4743 7.77873 12.1679L9.77873 10.8346C10.0856 10.63 10.4801 10.611 10.8053 10.785C11.1305 10.959 11.3334 11.2979 11.3334 11.6667ZM23.3333 11.6667V20.3333C23.3333 20.8857 22.8856 21.3333 22.3333 21.3333C21.7811 21.3333 21.3333 20.8857 21.3333 20.3333V13.5352L20.888 13.8321C20.4285 14.1385 19.8076 14.0143 19.5013 13.5548C19.1949 13.0952 19.3191 12.4744 19.7787 12.168L21.7787 10.8347C22.0855 10.6301 22.48 10.611 22.8052 10.785C23.1304 10.9591 23.3333 11.2979 23.3333 11.6667ZM17.3335 18.6667C17.3335 19.4031 16.7365 20 16.0001 20C15.2637 20 14.6668 19.4031 14.6668 18.6667C14.6668 17.9303 15.2637 17.3333 16.0001 17.3333C16.7365 17.3333 17.3335 17.9303 17.3335 18.6667ZM16.0001 14.6667C15.2637 14.6667 14.6668 14.0697 14.6668 13.3333C14.6668 12.597 15.2637 12 16.0001 12C16.7365 12 17.3335 12.597 17.3335 13.3333C17.3335 14.0697 16.7365 14.6667 16.0001 14.6667Z" fill="#202020"/>
</svg>
