<svg width="32" height="32" viewBox="0 0 32 32" fill="none" xmlns="http://www.w3.org/2000/svg">
<path d="M22.9489 2.98329C23.1236 2.45937 22.8405 1.89301 22.3167 1.71829C21.7927 1.54357 21.2264 1.82666 21.0516 2.35058L20.0516 5.34922C19.8769 5.87314 20.16 6.4395 20.6839 6.61422C21.2079 6.78894 21.7741 6.50585 21.9489 5.98193L22.9489 2.98329ZM29.0404 2.95983C29.4309 3.35037 29.4309 3.98353 29.0404 4.37405L25.7071 7.70738C25.3165 8.09791 24.6835 8.09791 24.2929 7.70738C23.9024 7.31686 23.9024 6.6837 24.2929 6.29317L27.6263 2.95983C28.0168 2.56931 28.6499 2.56931 29.0404 2.95983ZM17.1608 4.98811C15.6729 3.39421 13.0481 3.79357 12.1017 5.75783L4.23798 22.0787C3.78394 23.0209 3.9925 24.1488 4.75351 24.8665L6.67182 26.6756C7.37491 27.3387 8.40708 27.5153 9.29066 27.1239L11.1806 26.2865C12.0367 28.0881 13.8731 29.3336 16.0004 29.3336C18.946 29.3336 21.3337 26.9459 21.3337 24.0003C21.3337 23.28 21.1909 22.5929 20.9321 21.9661L25.492 19.9459C27.4412 19.0823 27.9572 16.5545 26.5025 14.9961L17.1608 4.98811ZM19.1021 22.7768C19.2516 23.1556 19.3337 23.5684 19.3337 24.0003C19.3337 25.8412 17.8415 27.3336 16.0004 27.3336C14.6892 27.3336 13.5549 26.5765 13.0106 25.4757L19.1021 22.7768ZM25.3333 10.9993C25.3333 10.447 25.7811 9.9993 26.3333 9.9993H29C29.5523 9.9993 30 10.447 30 10.9993C30 11.5516 29.5523 11.9993 29 11.9993H26.3333C25.7811 11.9993 25.3333 11.5516 25.3333 10.9993Z" fill="#202020"/>
</svg>
