<svg width="32" height="32" viewBox="0 0 32 32" fill="none" xmlns="http://www.w3.org/2000/svg">
<path d="M15.4857 2.45713C15.787 2.23124 16.2002 2.22833 16.5046 2.44998C18.7323 4.07241 21.4699 5.03844 23.689 5.59738C24.7919 5.87518 25.7516 6.04874 26.4339 6.15262C26.7747 6.2045 27.0454 6.23888 27.229 6.26013C27.3209 6.27076 27.3908 6.27808 27.437 6.28268L27.4879 6.28758L27.4993 6.28862L27.5011 6.28879C27.9447 6.32664 28.2857 6.6977 28.2857 7.14285V14.8571C28.2857 20.3755 24.6137 26.9888 16.2623 29.6731C16.0918 29.728 15.9082 29.728 15.7377 29.6731C7.4017 26.9937 3.42856 20.3914 3.42856 14.5714V7.14351C3.42855 6.69672 3.7717 6.32426 4.21702 6.28846L4.21967 6.28824L4.23217 6.28718L4.28682 6.28221C4.33614 6.27758 4.4108 6.2702 4.50843 6.25953C4.70375 6.23818 4.99073 6.20369 5.35055 6.15167C6.07088 6.04752 7.07944 5.87365 8.22662 5.59554C10.5388 5.03503 13.3362 4.06926 15.4857 2.45713ZM22.5961 11.7588C22.9362 11.4296 22.9451 10.8869 22.616 10.5468C22.2867 10.2066 21.7441 10.1977 21.4039 10.5269L13.1246 18.5392L10.5766 16.2228C10.2263 15.9044 9.68419 15.9303 9.36576 16.2806C9.04732 16.6308 9.07314 17.1729 9.42342 17.4914L12.5663 20.3486C12.9008 20.6527 13.414 20.6447 13.739 20.3303L22.5961 11.7588Z" fill="#107c10"/>
</svg>
