<svg width="32" height="32" viewBox="0 0 32 32" fill="none" xmlns="http://www.w3.org/2000/svg">
<path d="M16.6 2.86666C19.9893 5.40868 23.4488 6.66666 27 6.66666C27.5523 6.66666 28 7.11438 28 7.66666V14.6667C28 21.3349 24.0565 26.2343 16.3665 29.2637C16.1309 29.3565 15.8691 29.3565 15.6335 29.2637C7.94341 26.2343 4 21.3349 4 14.6667V7.66666C4 7.11438 4.44772 6.66666 5 6.66666C8.55121 6.66666 12.0106 5.40868 15.4 2.86666C15.7556 2.59999 16.2444 2.59999 16.6 2.86666ZM12.3745 10.9621C11.9845 10.5721 11.3521 10.5721 10.9621 10.9621C10.6075 11.3167 10.5753 11.8715 10.8654 12.2625L10.9621 12.3745L14.5933 16.0053L10.9621 19.6383C10.5721 20.0283 10.5721 20.6607 10.9621 21.0507C11.3521 21.4408 11.9845 21.4408 12.3745 21.0507L16.0053 17.4187L19.6383 21.0507C19.9928 21.4053 20.5477 21.4375 20.9387 21.1475L21.0507 21.0507C21.4053 20.6961 21.4375 20.1413 21.1475 19.7503L21.0507 19.6383L17.4187 16.0053L21.0507 12.3745C21.4408 11.9845 21.4408 11.3521 21.0507 10.9621C20.6607 10.5721 20.0283 10.5721 19.6383 10.9621L16.0053 14.5933L12.3745 10.9621Z" fill="#C94949"/>
</svg>
