<svg width="32" height="32" viewBox="0 0 32 32" fill="none" xmlns="http://www.w3.org/2000/svg">
<path d="M16 30C8.26801 30 2 23.732 2 16C2 8.26801 8.26801 2 16 2C23.732 2 30 8.26801 30 16C30 23.732 23.732 30 16 30ZM12.7563 21.798C12.4146 22.1397 12.4146 22.6936 12.7563 23.0353C13.098 23.3771 13.652 23.3771 13.9937 23.0353L20.4103 16.6187C20.7521 16.277 20.7521 15.723 20.4103 15.3813L13.9937 8.96461C13.652 8.62291 13.098 8.62291 12.7563 8.96461C12.4146 9.30632 12.4146 9.86035 12.7563 10.2021L18.5542 16L12.7563 21.798Z" fill="#C94949"/>
</svg>
