<svg width="32" height="32" viewBox="0 0 32 32" fill="none" xmlns="http://www.w3.org/2000/svg">
<path d="M14.8424 4.51646C15.539 3.8199 16.4837 3.42857 17.4688 3.42857H25.4281C27.1639 3.42857 28.571 4.83568 28.571 6.57143V14.5309C28.571 15.5159 28.1797 16.4607 27.4831 17.1573L16.9117 27.7287C15.4611 29.1792 13.1094 29.1792 11.6589 27.7287L4.27093 20.3407C2.8204 18.8902 2.82041 16.5384 4.27093 15.0879L14.8424 4.51646ZM22.2857 11.4286C23.2325 11.4286 24 10.6611 24 9.71429C24 8.76751 23.2325 8 22.2857 8C21.339 8 20.5714 8.76751 20.5714 9.71429C20.5714 10.6611 21.339 11.4286 22.2857 11.4286Z" fill="#202020"/>
</svg>
