<svg width="32" height="32" viewBox="0 0 32 32" fill="none" xmlns="http://www.w3.org/2000/svg">
<path d="M14.5556 18.8889C16.9489 18.8889 18.8889 16.9489 18.8889 14.5556C18.8889 12.1623 16.9489 10.2222 14.5556 10.2222C12.1623 10.2222 10.2222 12.1623 10.2222 14.5556C10.2222 16.9489 12.1623 18.8889 14.5556 18.8889ZM3 7.69444C3 5.10177 5.10177 3 7.69444 3H24.3056C26.8982 3 29 5.10177 29 7.69444V24.3056C29 26.8982 26.8982 29 24.3056 29H7.69444C5.10177 29 3 26.8982 3 24.3056V7.69444ZM14.5556 21.0556C15.9594 21.0556 17.2593 20.6105 18.3218 19.8539L22.0951 23.6271C22.5182 24.0502 23.204 24.0502 23.6271 23.6271C24.0502 23.204 24.0502 22.5182 23.6271 22.0951L19.8539 18.3218C20.6105 17.2593 21.0556 15.9594 21.0556 14.5556C21.0556 10.9657 18.1454 8.05556 14.5556 8.05556C10.9657 8.05556 8.05556 10.9657 8.05556 14.5556C8.05556 18.1454 10.9657 21.0556 14.5556 21.0556Z" fill="#202020"/>
</svg>
