<svg width="32" height="32" viewBox="0 0 32 32" fill="none" xmlns="http://www.w3.org/2000/svg">
<path d="M7.69444 3C5.10177 3 3 5.10178 3 7.69444V24.3056C3 26.8982 5.10178 29 7.69444 29H24.3056C26.8982 29 29 26.8982 29 24.3056V7.69444C29 5.10177 26.8982 3 24.3056 3H7.69444ZM23.6267 12.072L13.8713 21.8162C13.4481 22.2388 12.7625 22.2386 12.3396 21.8156L8.37354 17.8493C7.95049 17.4262 7.9505 16.7403 8.37359 16.3172C8.79667 15.8943 9.48259 15.8943 9.90566 16.3173L13.1062 19.5181L22.0956 10.5391C22.5188 10.1163 23.2047 10.1166 23.6275 10.54C24.0505 10.9633 24.05 11.6492 23.6267 12.072Z" fill="#202020"/>
</svg>
