<svg width="32" height="32" viewBox="0 0 32 32" fill="none" xmlns="http://www.w3.org/2000/svg">
<path d="M4.2391 6.19986C3.2392 5.63364 2 6.356 2 7.50513V24.4964C2 25.6457 3.2396 26.3681 4.2395 25.8014L19.2373 17.3026C20.2514 16.7279 20.2512 15.2667 19.2368 14.6923L4.2391 6.19986ZM0 7.50513C0 4.82382 2.89137 3.13833 5.2246 4.4595L20.2223 12.952C22.5891 14.2921 22.5897 17.7017 20.2233 19.0426L5.2256 27.5415C2.89234 28.8636 0 27.1782 0 24.4964V7.50513Z" fill="#202020"/>
<path d="M2 6.5L2.5 6H4L19.5 14.5L20.5 16L19.5 17L3 26L2 25V6.5Z" fill="#202020" stroke="#202020"/>
<path d="M14.2391 6.19986C13.2392 5.63364 12 6.356 12 7.50513V24.4964C12 25.6457 13.2396 26.3681 14.2395 25.8014L29.2373 17.3026C30.2514 16.7279 30.2512 15.2667 29.2368 14.6923L14.2391 6.19986ZM10 7.50513C10 4.82382 12.8914 3.13833 15.2246 4.4595L30.2223 12.952C32.5891 14.2921 32.5897 17.7017 30.2233 19.0426L15.2256 27.5415C12.8923 28.8636 10 27.1782 10 24.4964V7.50513Z" fill="#202020"/>
<path d="M12 6.5L12.5 6H14L29.5 14.5L30.5 16L29.5 17L13 26L12 25V6.5Z" fill="#202020" stroke="#202020"/>
</svg>
