<?xml version="1.0" encoding="utf-8"?>
<!-- Generator: Adobe Illustrator 27.2.0, SVG Export Plug-In . SVG Version: 6.00 Build 0)  -->
<svg version="1.1" id="Layer_1" xmlns="http://www.w3.org/2000/svg" xmlns:xlink="http://www.w3.org/1999/xlink" x="0px" y="0px"
	 viewBox="0 0 32 32" style="enable-background:new 0 0 32 32;" xml:space="preserve">
<style type="text/css">
	.st0{fill:#202020;}
</style>
<path class="st0" d="M28.5,21.4L28.5,21.4c-0.7-0.6-1.5-0.8-2.2-0.9l0,0c-0.6-0.1-0.7-0.2-1-0.4c-0.2-0.1-0.4-0.4-0.4-0.7
	s0.2-0.5,0.4-0.7l2-1.8c1.7-1.5,2.7-3.6,2.7-5.8s-1-4.3-2.7-5.8C24.9,3.2,21.6,2,18,2C13.8,2,9.7,3.6,6.6,6.3C3.6,8.9,2,12.4,2,16.2
	c0,3.7,1.6,7.2,4.6,9.8c1.5,1.3,3.2,2.3,5.2,3c1.9,0.7,3.9,1,5.8,1h0.1c4.1,0,8-1.4,10.7-3.8c0.7-0.6,1-1.4,1-2.3
	C29.5,22.9,29.1,22,28.5,21.4z M6.3,12.8c0-1.2,1-2.2,2.2-2.2s2.2,1,2.2,2.2s-1,2.2-2.2,2.2S6.3,14,6.3,12.8L6.3,12.8z M9,21.9
	c-1.2,0-2.2-1-2.2-2.2s1-2.2,2.2-2.2s2.2,1,2.2,2.2S10.2,21.9,9,21.9L9,21.9z M11.7,8.5c0-1.2,1-2.2,2.2-2.2s2.2,1,2.2,2.2
	s-1,2.2-2.2,2.2S11.7,9.7,11.7,8.5L11.7,8.5z M16,26.7c-1.8,0-3.2-1.4-3.2-3.2c0-1.8,1.4-3.2,3.2-3.2s3.2,1.4,3.2,3.2l0,0
	C19.2,25.3,17.8,26.7,16,26.7z M20.8,10.6c-1.2,0-2.2-1-2.2-2.2s1-2.2,2.2-2.2c1.2,0,2.2,1,2.2,2.2C23,9.7,22,10.6,20.8,10.6
	C20.8,10.6,20.8,10.6,20.8,10.6z"/>
</svg>
