<svg width="32" height="32" viewBox="0 0 32 32" fill="none" xmlns="http://www.w3.org/2000/svg">
<path d="M16 2C23.7319 2 30 8.26801 30 16C30 23.7319 23.7319 30 16 30C8.26801 30 2 23.7319 2 16C2 8.26801 8.26801 2 16 2ZM20.9424 11.0575L20.8247 10.9559C20.4593 10.6848 19.9578 10.6814 19.589 10.9458L19.4576 11.0575L16 14.5146L12.5425 11.0575L12.4247 10.9559C12.0593 10.6848 11.5578 10.6814 11.1891 10.9458L11.0575 11.0575L10.9559 11.1753C10.6848 11.5407 10.6814 12.0422 10.9458 12.4109L11.0575 12.5425L14.5146 16L11.0575 19.4576L10.9559 19.5753C10.6848 19.9407 10.6814 20.4422 10.9458 20.811L11.0575 20.9424L11.1753 21.0441C11.5407 21.3152 12.0422 21.3186 12.4109 21.0541L12.5425 20.9424L16 17.4854L19.4576 20.9424L19.5753 21.0441C19.9407 21.3152 20.4422 21.3186 20.811 21.0541L20.9424 20.9424L21.0441 20.8247C21.3152 20.4593 21.3186 19.9578 21.0541 19.589L20.9424 19.4576L17.4854 16L20.9424 12.5425L21.0441 12.4247C21.3152 12.0593 21.3186 11.5578 21.0541 11.1891L20.9424 11.0575L20.8247 10.9559L20.9424 11.0575Z" fill="#b10e1c"/>
</svg>
