<?xml version="1.0" encoding="utf-8"?>
<!-- Generator: Adobe Illustrator 27.2.0, SVG Export Plug-In . SVG Version: 6.00 Build 0)  -->
<svg version="1.1" id="Layer_1" xmlns="http://www.w3.org/2000/svg" xmlns:xlink="http://www.w3.org/1999/xlink" x="0px" y="0px"
	 viewBox="0 0 32 32" style="enable-background:new 0 0 32 32;" xml:space="preserve">
<style type="text/css">
	.st0{fill:#202020;}
</style>
<path class="st0" d="M8.2,25.7h15.7c0.6,0,1.2,0.5,1.2,1.2c0,0.6-0.5,1.1-1.1,1.2l-0.1,0H8.2C7.5,28,7,27.5,7,26.8
	C7,26.2,7.5,25.7,8.2,25.7L8.2,25.7h15.7H8.2z M15.9,23.5L15.9,23.5c-0.7,0-1.2-0.5-1.3-1.1l0-0.1V8.1l-3.2,3.2
	c-0.5,0.5-1.2,0.5-1.6,0c-0.5-0.5-0.5-1.2,0-1.6L15,4.5c0.5-0.5,1.2-0.5,1.6,0l5.2,5.2c0.5,0.5,0.5,1.2,0,1.6
	c-0.5,0.5-1.2,0.5-1.6,0L17,8.2v14.2C17,23,16.5,23.5,15.9,23.5L15.9,23.5L15.9,23.5z"/>
</svg>
