<svg width="32" height="32" viewBox="0 0 32 32" fill="none" xmlns="http://www.w3.org/2000/svg">
<path d="M10.6667 14.6667C13.6121 14.6667 16 12.2789 16 9.33333C16 6.38781 13.6121 4 10.6667 4C7.72114 4 5.33333 6.38781 5.33333 9.33333C5.33333 12.2789 7.72114 14.6667 10.6667 14.6667ZM22.6667 14.6667C24.8759 14.6667 26.6667 12.8758 26.6667 10.6667C26.6667 8.45753 24.8759 6.66667 22.6667 6.66667C20.4575 6.66667 18.6667 8.45753 18.6667 10.6667C18.6667 12.8758 20.4575 14.6667 22.6667 14.6667ZM5.66666 17.3333C4.00981 17.3333 2.66666 18.6765 2.66666 20.3333V20.6667C2.66666 20.6667 2.66666 26.6667 10.6667 26.6667C12.5198 26.6667 13.9437 26.3447 15.0377 25.85C14.7964 25.0535 14.6667 24.2085 14.6667 23.3333C14.6667 21.1241 15.4932 19.1081 16.854 17.5775C16.4899 17.4204 16.0884 17.3333 15.6667 17.3333H5.66666ZM30.6667 23.3333C30.6667 27.3835 27.3835 30.6667 23.3333 30.6667C19.2832 30.6667 16 27.3835 16 23.3333C16 19.2832 19.2832 16 23.3333 16C27.3835 16 30.6667 19.2832 30.6667 23.3333ZM18 23.3333C18 24.4447 18.34 25.4767 18.9215 26.3309L26.3309 18.9215C25.4767 18.34 24.4447 18 23.3333 18C20.3879 18 18 20.3879 18 23.3333ZM23.3333 28.6667C26.2788 28.6667 28.6667 26.2788 28.6667 23.3333C28.6667 22.222 28.3267 21.19 27.7452 20.3357L20.3357 27.7452C21.19 28.3267 22.222 28.6667 23.3333 28.6667Z" fill="#202020"/>
</svg>
