<svg width="32" height="32" viewBox="0 0 32 32" fill="none" xmlns="http://www.w3.org/2000/svg">
<path d="M8.94281 4.39052C8.42211 3.86983 7.57789 3.86983 7.05719 4.39052L5.33333 6.11439L4.94281 5.72385C4.42211 5.20316 3.57789 5.20316 3.05719 5.72385C2.53649 6.24456 2.53649 7.08877 3.05719 7.60948L4.39052 8.94281C4.91123 9.46351 5.75544 9.46351 6.27615 8.94281L8.94281 6.27615C9.46351 5.75544 9.46351 4.91123 8.94281 4.39052ZM28.0045 22.6577H13.3327L13.1772 22.6667C12.5141 22.7437 11.9993 23.3073 11.9993 23.9911C11.9993 24.7275 12.5963 25.3244 13.3327 25.3244H28.0045L28.1601 25.3155C28.8232 25.2384 29.3379 24.6748 29.3379 23.9911C29.3379 23.2547 28.7409 22.6577 28.0045 22.6577ZM28.0045 14.6667H13.3327L13.1772 14.6756C12.5141 14.7527 11.9993 15.3163 11.9993 16C11.9993 16.7364 12.5963 17.3333 13.3327 17.3333H28.0045L28.1601 17.3244C28.8232 17.2473 29.3379 16.6837 29.3379 16C29.3379 15.2636 28.7409 14.6667 28.0045 14.6667ZM28.0045 6.66672H13.3327L13.1772 6.67569C12.5141 6.75271 11.9993 7.31627 11.9993 8.00005C11.9993 8.73643 12.5963 9.33339 13.3327 9.33339H28.0045L28.1601 9.32441C28.8232 9.2474 29.3379 8.68383 29.3379 8.00005C29.3379 7.26367 28.7409 6.66672 28.0045 6.66672ZM8.94281 21.7239C8.42211 21.2032 7.57789 21.2032 7.05719 21.7239L5.33333 23.4477L4.94281 23.0572C4.42211 22.5365 3.57789 22.5365 3.05719 23.0572C2.53649 23.5779 2.53649 24.4221 3.05719 24.9428L4.39052 26.2761C4.91123 26.7968 5.75544 26.7968 6.27615 26.2761L8.94281 23.6095C9.46351 23.0888 9.46351 22.2445 8.94281 21.7239ZM7.05719 13.0572C7.57789 12.5365 8.42211 12.5365 8.94281 13.0572C9.46351 13.5779 9.46351 14.4221 8.94281 14.9428L6.27615 17.6095C5.75544 18.1301 4.91123 18.1301 4.39052 17.6095L3.05719 16.2761C2.53649 15.7555 2.53649 14.9112 3.05719 14.3905C3.57789 13.8699 4.42211 13.8699 4.94281 14.3905L5.33333 14.7811L7.05719 13.0572Z" fill="#202020"/>
</svg>
