<svg width="32" height="32" viewBox="0 0 32 32" fill="none" xmlns="http://www.w3.org/2000/svg">
<path d="M29.4286 25.5876C29.4286 27.7089 27.7089 29.4286 25.5876 29.4286H7.26947C5.14819 29.4286 3.42856 27.7089 3.42856 25.5876V7.26947C3.42856 5.14819 5.14819 3.42856 7.26947 3.42856H25.5876C27.7089 3.42856 29.4286 5.14819 29.4286 7.26947V25.5876ZM23.224 16.4286C23.224 15.9798 22.8905 15.609 22.458 15.5502L22.3376 15.5422H10.5195L10.3992 15.5502C9.96655 15.609 9.6331 15.9798 9.6331 16.4286C9.6331 16.8773 9.96655 17.2481 10.3992 17.3069L10.5195 17.3149H22.3376L22.458 17.3069C22.8905 17.2481 23.224 16.8773 23.224 16.4286ZM23.224 22.6331C23.224 22.1844 22.8905 21.8135 22.458 21.7548L22.3376 21.7467H10.5195L10.3992 21.7548C9.96655 21.8135 9.6331 22.1844 9.6331 22.6331C9.6331 23.0818 9.96655 23.4527 10.3992 23.5114L10.5195 23.5195H22.3376L22.458 23.5114C22.8905 23.4527 23.224 23.0818 23.224 22.6331ZM23.224 10.224C23.224 9.77528 22.8905 9.40443 22.458 9.34574L22.3376 9.33765H10.5195L10.3992 9.34574C9.96655 9.40443 9.6331 9.77528 9.6331 10.224C9.6331 10.6727 9.96655 11.0436 10.3992 11.1023L10.5195 11.1104H22.3376L22.458 11.1023C22.8905 11.0436 23.224 10.6727 23.224 10.224Z" fill="#202020"/>
</svg>
