<svg width="32" height="32" viewBox="0 0 32 32" fill="none" xmlns="http://www.w3.org/2000/svg">
<path d="M9.6 4.8C6.94904 4.8 4.8 6.94904 4.8 9.6V22.4C4.8 25.051 6.94904 27.2 9.6 27.2H14.4816C14.4284 26.9437 14.4 26.6768 14.4 26.3992V25.6H9.6C7.83269 25.6 6.4 24.1674 6.4 22.4V11.2H27.2V9.6C27.2 6.94904 25.051 4.8 22.4 4.8H9.6ZM27.2 13.4736C26.7064 13.29 26.1696 13.1395 25.6 13.0276C24.8493 12.8802 24.0416 12.8 23.2 12.8C19.2235 12.8 16 14.5909 16 16.8C16 19.0091 19.2235 20.8 23.2 20.8C27.1765 20.8 30.4 19.0091 30.4 16.8C30.4 15.4132 29.1296 14.1911 27.2 13.4736ZM23.2 22.4C25.4078 22.4 27.4856 21.9062 29.0682 21.027C29.5368 20.7667 29.9938 20.4518 30.4021 20.0842C30.4013 21.9704 30.4 24.9525 30.4 26.399C30.4 28.6083 27.1765 30.399 23.2 30.399C19.2235 30.399 16 28.6083 16 26.399V20.0861C16.4078 20.453 16.864 20.767 17.3318 21.027C18.9144 21.9062 20.9922 22.4 23.2 22.4Z" fill="#202020"/>
</svg>
