<svg width="32" height="32" viewBox="0 0 32 32" fill="none" xmlns="http://www.w3.org/2000/svg">
<path d="M20.4 28C21.0627 28 21.6 27.4627 21.6 26.8C21.6 26.1373 21.0627 25.6 20.4 25.6H10.4C8.63269 25.6 7.2 24.1674 7.2 22.4V9.6C7.2 7.83269 8.63269 6.4 10.4 6.4H20.4C21.0627 6.4 21.6 5.86274 21.6 5.2C21.6 4.53726 21.0627 4 20.4 4H10.4C7.3072 4 4.8 6.5072 4.8 9.6V22.4C4.8 25.4928 7.3072 28 10.4 28H20.4ZM21.9861 9.91824C22.4731 9.46872 23.2322 9.49909 23.6818 9.98606L28.4818 15.1861C28.9061 15.6457 28.9061 16.3542 28.4818 16.8139L23.6818 22.0139C23.2322 22.501 22.4731 22.5314 21.9861 22.0818C21.499 21.6323 21.4686 20.8731 21.9182 20.3861L24.8592 17.2H12.4C11.7373 17.2 11.2 16.6627 11.2 16C11.2 15.3373 11.7373 14.8 12.4 14.8H24.8592L21.9182 11.6139C21.4686 11.127 21.499 10.3678 21.9861 9.91824Z" fill="white"/>
</svg>
