<svg width="32" height="32" viewBox="0 0 32 32" fill="none" xmlns="http://www.w3.org/2000/svg">
<path d="M7.69444 3C5.10177 3 3 5.10177 3 7.69444V24.3056C3 26.8982 5.10177 29 7.69444 29H24.3056C26.8982 29 29 26.8982 29 24.3056V7.69444C29 5.10177 26.8982 3 24.3056 3H7.69444ZM8.41667 9.5C7.83158 9.5 7.33333 9.04176 7.33333 8.45668V8.3781C7.33333 7.8103 7.77399 7.33606 8.34179 7.33351L8.41667 7.33333C17.3913 7.33333 24.6667 14.6087 24.6667 23.5833L24.6665 23.6582C24.6639 24.226 24.1897 24.6667 23.6219 24.6667H23.5433C22.9582 24.6667 22.5 24.1685 22.5 23.5833C22.5 15.8053 16.1947 9.5 8.41667 9.5ZM17.8691 24.6667H17.7385C17.1628 24.6667 16.7222 24.1591 16.7222 23.5833C16.7222 18.9964 13.0037 15.2778 8.41667 15.2778C7.84084 15.2778 7.33333 14.8372 7.33333 14.2615V14.1309C7.33333 13.583 7.74803 13.118 8.2959 13.1118C8.3361 13.1114 8.37635 13.1111 8.41667 13.1111C14.2004 13.1111 18.8889 17.7996 18.8889 23.5833C18.8889 23.6236 18.8886 23.6639 18.8882 23.7041C18.882 24.252 18.417 24.6667 17.8691 24.6667ZM9.5 24.6667C8.30338 24.6667 7.33333 23.6966 7.33333 22.5C7.33333 21.3034 8.30338 20.3333 9.5 20.3333C10.6966 20.3333 11.6667 21.3034 11.6667 22.5C11.6667 23.6966 10.6966 24.6667 9.5 24.6667Z" fill="white"/>
</svg>
