<svg width="32" height="32" viewBox="0 0 32 32" fill="none" xmlns="http://www.w3.org/2000/svg">
<path d="M16 2.66667C16.9519 2.66667 17.8916 2.76659 18.8079 2.96305C19.582 3.12906 19.8653 4.08628 19.3063 4.64695C18.6864 5.2685 18.3333 6.10491 18.3333 7C18.3333 8.56058 19.4149 9.90291 20.9144 10.2483C21.4079 10.362 21.7385 10.8265 21.6843 11.33C21.6725 11.4383 21.6667 11.5508 21.6667 11.6667C21.6667 13.5076 23.1591 15 25 15C25.9688 15 26.8684 14.5857 27.498 13.8737C28.0701 13.2268 29.1381 13.5605 29.2401 14.4183C29.3021 14.9397 29.3333 15.4679 29.3333 16C29.3333 23.3637 23.3637 29.3333 16 29.3333C8.63619 29.3333 2.66666 23.3637 2.66666 16C2.66666 8.6362 8.63619 2.66667 16 2.66667ZM20 21.3333C19.2636 21.3333 18.6667 21.9303 18.6667 22.6667C18.6667 23.4031 19.2636 24 20 24C20.7364 24 21.3333 23.4031 21.3333 22.6667C21.3333 21.9303 20.7364 21.3333 20 21.3333ZM10.6667 20C9.93028 20 9.33332 20.5969 9.33332 21.3333C9.33332 22.0697 9.93028 22.6667 10.6667 22.6667C11.403 22.6667 12 22.0697 12 21.3333C12 20.5969 11.403 20 10.6667 20ZM16 14.6667C15.2636 14.6667 14.6667 15.2636 14.6667 16C14.6667 16.7364 15.2636 17.3333 16 17.3333C16.7364 17.3333 17.3333 16.7364 17.3333 16C17.3333 15.2636 16.7364 14.6667 16 14.6667ZM9.33332 10.6667C8.59695 10.6667 7.99999 11.2636 7.99999 12C7.99999 12.7364 8.59695 13.3333 9.33332 13.3333C10.0697 13.3333 10.6667 12.7364 10.6667 12C10.6667 11.2636 10.0697 10.6667 9.33332 10.6667Z" fill="white"/>
</svg>
