<svg width="32" height="32" viewBox="0 0 32 32" fill="none" xmlns="http://www.w3.org/2000/svg">
<path d="M2 16C2 23.732 8.26801 30 16 30C23.732 30 30 23.732 30 16C30 8.26801 23.732 2 16 2C8.26801 2 2 8.26801 2 16ZM17.4583 9C17.4583 9.80542 16.8055 10.4583 16 10.4583C15.1945 10.4583 14.5417 9.80542 14.5417 9C14.5417 8.19458 15.1945 7.54167 16 7.54167C16.8055 7.54167 17.4583 8.19458 17.4583 9ZM16 12.5C16.6443 12.5 17.1667 13.0223 17.1667 13.6667V23C17.1667 23.6443 16.6443 24.1667 16 24.1667C15.3556 24.1667 14.8333 23.6443 14.8333 23V13.6667C14.8333 13.0223 15.3556 12.5 16 12.5Z" fill="#FDAE50"/>
</svg>
