<svg width="32" height="32" viewBox="0 0 32 32" fill="none" xmlns="http://www.w3.org/2000/svg">
<path d="M16 2.66669C23.3637 2.66669 29.3333 8.63622 29.3333 16C29.3333 23.3638 23.3637 29.3334 16 29.3334C8.63619 29.3334 2.66666 23.3638 2.66666 16C2.66666 8.63622 8.63619 2.66669 16 2.66669ZM10.3333 15C9.78104 15 9.33332 15.4478 9.33332 16C9.33332 16.5063 9.70952 16.9247 10.1976 16.991L10.3333 17C17.6143 17 15.0043 17 21.6667 17C22.2189 17 22.6667 16.5523 22.6667 16C22.6667 15.4938 22.2904 15.0754 21.8024 15.0091L21.6667 15C14.7405 15 17.9247 15 10.3333 15Z" fill="white"/>
</svg>
