<svg width="32" height="32" viewBox="0 0 32 32" fill="none" xmlns="http://www.w3.org/2000/svg">
<path d="M22.7561 10.2917H10.2561V13.4167H22.7561V10.2917ZM19.6311 19.6667H22.7561V21.75H19.6311V19.6667ZM9.20833 3C6.33185 3 4 5.33185 4 8.20833V22.7917C4 25.6681 6.33185 28 9.20833 28H23.7917C26.6681 28 29 25.6681 29 22.7917V8.20833C29 5.33185 26.6681 3 23.7917 3H9.20833ZM8.17277 10.2917C8.17277 9.14107 9.10551 8.20833 10.2561 8.20833H22.7561C23.9067 8.20833 24.8395 9.14107 24.8395 10.2917V13.4167C24.8395 14.5673 23.9067 15.5 22.7561 15.5H10.2561C9.10551 15.5 8.17277 14.5673 8.17277 13.4167V10.2917ZM19.6311 17.5833H22.7561C23.9067 17.5833 24.8395 18.516 24.8395 19.6667V21.75C24.8395 22.9006 23.9067 23.8333 22.7561 23.8333H19.6311C18.4805 23.8333 17.5478 22.9006 17.5478 21.75V19.6667C17.5478 18.516 18.4805 17.5833 19.6311 17.5833ZM8.17277 18.625C8.17277 18.0497 8.63914 17.5833 9.21444 17.5833H14.4228C14.998 17.5833 15.4645 18.0497 15.4645 18.625C15.4645 19.2003 14.998 19.6667 14.4228 19.6667H9.21444C8.63914 19.6667 8.17277 19.2003 8.17277 18.625ZM9.21444 21.75H14.4228C14.998 21.75 15.4645 22.2164 15.4645 22.7917C15.4645 23.367 14.998 23.8333 14.4228 23.8333H9.21444C8.63914 23.8333 8.17277 23.367 8.17277 22.7917C8.17277 22.2164 8.63914 21.75 9.21444 21.75Z" fill="white"/>
</svg>
