<svg width="32" height="32" viewBox="0 0 32 32" fill="none" xmlns="http://www.w3.org/2000/svg">
<path d="M23.7123 14.2776C23.8706 14.436 24.0247 14.6011 24.174 14.7719C23.1168 14.5024 21.9451 14.7508 21.0994 15.5168C17.8927 12.9894 13.23 13.2049 10.2716 16.1633C9.65151 16.7833 9.14825 17.4799 8.76063 18.2463C8.42826 18.9033 7.62614 19.1665 6.96903 18.8343C6.31193 18.5019 6.04869 17.6997 6.38106 17.0427C6.89569 16.0252 7.56539 15.0983 8.38598 14.2776C12.6182 10.0454 19.48 10.0454 23.7123 14.2776ZM15.9406 25.3372L17.5642 22.0876C17.5182 22.0301 17.4686 21.9748 17.4154 21.9216C16.6338 21.14 15.3666 21.14 14.585 21.9216C13.8034 22.7032 13.8034 23.9704 14.585 24.752C14.9606 25.1276 15.4484 25.3227 15.9406 25.3372ZM18.7042 19.8056L19.9114 17.3893C17.201 15.5825 13.5051 15.8748 11.1136 18.2664C10.5001 18.8799 10.012 19.6121 9.65994 20.4167C9.36475 21.0913 9.67235 21.8775 10.347 22.1727C11.0216 22.4679 11.8078 22.1603 12.103 21.4856C12.3255 20.9772 12.6282 20.5231 12.9992 20.152C14.5578 18.5935 17.0128 18.478 18.7042 19.8056ZM27.2258 11.0648C27.9031 11.7421 28.5416 12.5148 29.0975 13.3202C29.5158 13.9263 29.3635 14.7567 28.7575 15.1749C28.1515 15.5932 27.3211 15.4409 26.9028 14.8349C26.4366 14.1593 25.9007 13.5111 25.3402 12.9504C20.1771 7.78736 11.806 7.78736 6.64294 12.9504C6.11071 13.4827 5.58026 14.1313 5.09566 14.8299C4.67593 15.4348 3.84518 15.5851 3.24014 15.1653C2.6351 14.7456 2.48487 13.9148 2.90462 13.3098C3.4753 12.4872 4.1053 11.7168 4.75733 11.0648C10.9618 4.86033 21.0212 4.86033 27.2258 11.0648ZM21.5428 17.1068L16.2136 27.7712C15.5487 29.1016 16.5166 30.6667 18.0042 30.6667H28.6626C30.1502 30.6667 31.118 29.1017 30.4531 27.7712L25.1239 17.1068C24.3866 15.6311 22.2803 15.6311 21.5428 17.1068ZM24.0006 20.6608V24.6632C24.0006 25.0316 23.7019 25.3301 23.3334 25.3301C22.965 25.3301 22.6662 25.0316 22.6662 24.6632V20.6608C22.6662 20.2924 22.965 19.9939 23.3334 19.9939C23.7019 19.9939 24.0006 20.2924 24.0006 20.6608ZM23.3334 27.9984C22.965 27.9984 22.6662 27.6997 22.6662 27.3313C22.6662 26.9629 22.965 26.6643 23.3334 26.6643C23.7019 26.6643 24.0006 26.9629 24.0006 27.3313C24.0006 27.6997 23.7019 27.9984 23.3334 27.9984Z" fill="white"/>
</svg>
