<svg width="32" height="32" viewBox="0 0 32 32" fill="none" xmlns="http://www.w3.org/2000/svg">
<path d="M18.428 8.66665H26.3333C27.8489 8.66665 29.1021 9.79061 29.3047 11.2505L29.3264 11.4612L29.3333 11.6666V23.6666C29.3333 25.2545 28.0997 26.5541 26.5387 26.6597L26.3333 26.6666H5.66667C4.07886 26.6666 2.77915 25.433 2.67359 23.872L2.66667 23.6666V13.9986L10.9426 14L11.2045 13.9885C11.7253 13.9429 12.2253 13.7618 12.6546 13.4636L12.8631 13.3046L18.428 8.66665ZM10.9426 5.33331C11.5567 5.33331 12.1537 5.5217 12.6546 5.86978L12.8631 6.02865L15.6667 8.36398L11.5828 11.7682L11.4696 11.8498C11.3515 11.9231 11.2194 11.9709 11.0817 11.9902L10.9426 12L2.66667 11.9986V8.33331C2.66667 6.7455 3.90022 5.44579 5.46127 5.34023L5.66667 5.33331H10.9426Z" fill="white"/>
</svg>
