<svg width="32" height="32" viewBox="0 0 32 32" fill="none" xmlns="http://www.w3.org/2000/svg">
<path d="M16 2.66669V10.6667C16 12.1394 17.1939 13.3334 18.6667 13.3334H26.6667V26.6667C26.6667 28.1395 25.4728 29.3334 24 29.3334H14.9205C16.4149 27.7762 17.3333 25.662 17.3333 23.3334C17.3333 18.5468 13.4532 14.6667 8.66666 14.6667C7.48546 14.6667 6.35945 14.903 5.33333 15.331V5.33335C5.33333 3.86059 6.52723 2.66669 7.99999 2.66669H16Z" fill="white"/>
<path d="M18 3.33331V10.6666C18 11.0348 18.2985 11.3333 18.6667 11.3333H26L18 3.33331Z" fill="white"/>
<path d="M16 23.3333C16 27.3835 12.7168 30.6667 8.66666 30.6667C4.61657 30.6667 1.33333 27.3835 1.33333 23.3333C1.33333 19.2832 4.61657 16 8.66666 16C12.7168 16 16 19.2832 16 23.3333ZM4.66666 22.6667C4.29847 22.6667 3.99999 22.9652 3.99999 23.3333C3.99999 23.7015 4.29847 24 4.66666 24H11.0572L8.86193 26.1952C8.60157 26.4556 8.60157 26.8777 8.86193 27.1381C9.12228 27.3984 9.54438 27.3984 9.80473 27.1381L13.1381 23.8048C13.3984 23.5444 13.3984 23.1223 13.1381 22.8619L9.80473 19.5285C9.54438 19.2683 9.12228 19.2683 8.86193 19.5285C8.60157 19.7889 8.60158 20.2111 8.86193 20.4715L11.0572 22.6667H4.66666Z" fill="white"/>
</svg>
