<svg width="32" height="32" viewBox="0 0 32 32" fill="none" xmlns="http://www.w3.org/2000/svg">
<path d="M9.14286 3.42856H7.14286C5.09151 3.42856 3.42857 5.0915 3.42857 7.14284V24.8571C3.42857 26.8123 4.9393 28.4147 6.85714 28.5606V18.5714C6.85714 17.1513 8.00841 16 9.42857 16H22.5714C23.9915 16 25.1429 17.1513 25.1429 18.5714V28.5606C27.0607 28.4147 28.5714 26.8123 28.5714 24.8571V10.0406C28.5714 9.05551 28.1801 8.11076 27.4835 7.4142L24.5858 4.51644C23.8893 3.81988 22.9445 3.42856 21.9594 3.42856H21.7143V9.99999C21.7143 11.4201 20.563 12.5714 19.1429 12.5714H11.7143C10.2941 12.5714 9.14286 11.4201 9.14286 9.99999V3.42856ZM20 3.42856H10.8571V9.99999C10.8571 10.4734 11.2409 10.8571 11.7143 10.8571H19.1429C19.6162 10.8571 20 10.4734 20 9.99999V3.42856ZM23.4286 28.5714V18.5714C23.4286 18.098 23.0448 17.7143 22.5714 17.7143H9.42857C8.95519 17.7143 8.57143 18.098 8.57143 18.5714V28.5714H23.4286Z" fill="white"/>
</svg>
