<svg width="32" height="32" viewBox="0 0 32 32" fill="none" xmlns="http://www.w3.org/2000/svg">
<path d="M17.3333 10.6667V2.66666H9.33333C7.86057 2.66666 6.66667 3.86057 6.66667 5.33333V12.4036C7.84336 11.7229 9.20952 11.3333 10.6667 11.3333C15.0849 11.3333 18.6667 14.9151 18.6667 19.3333C18.6667 20.7796 18.2819 22.1381 17.6096 23.3099L22.3165 28.0168C22.6872 28.3873 22.9071 28.8516 22.9763 29.3333H25.3333C26.8061 29.3333 28 28.1395 28 26.6667V13.3333H20C18.5272 13.3333 17.3333 12.1394 17.3333 10.6667ZM19.9596 30.3737C20.3501 30.7643 20.9832 30.7643 21.3737 30.3737C21.6552 30.0924 21.7337 29.6851 21.6097 29.3333C21.5616 29.1968 21.4829 29.0687 21.3737 28.9596L15.8903 23.476C16.7937 22.3384 17.3333 20.8989 17.3333 19.3333C17.3333 17.5164 16.6064 15.8692 15.4276 14.6667C14.2177 13.4324 12.5316 12.6667 10.6667 12.6667C9.16585 12.6667 7.78088 13.1626 6.66667 13.9995C5.0474 15.2157 4 17.1523 4 19.3333C4 23.0152 6.98477 26 10.6667 26C12.0611 26 13.3555 25.5719 14.4257 24.8399L19.9596 30.3737ZM10.6667 14.6667C13.244 14.6667 15.3333 16.756 15.3333 19.3333C15.3333 21.9107 13.244 24 10.6667 24C8.08933 24 6 21.9107 6 19.3333C6 16.756 8.08933 14.6667 10.6667 14.6667ZM19.3333 10.6667V3.33333L27.3333 11.3333H20C19.6319 11.3333 19.3333 11.0349 19.3333 10.6667Z" fill="white"/>
</svg>
