<svg width="32" height="32" viewBox="0 0 32 32" fill="none" xmlns="http://www.w3.org/2000/svg">
<path d="M6.42593 27.2778H25.5741C26.3616 27.2778 27 27.9162 27 28.7037C27 29.4519 26.4238 30.0654 25.691 30.1249L25.5741 30.1296H6.42593C5.63841 30.1296 5 29.4912 5 28.7037C5 27.9555 5.57616 27.342 6.309 27.2825L6.42593 27.2778H25.5741H6.42593ZM15.6794 1.00473L15.7963 1C16.5445 1 17.158 1.57616 17.2175 2.30898L17.2222 2.42593V19.8084L21.1277 15.9035C21.6846 15.3467 22.5875 15.3467 23.1443 15.9035C23.7011 16.4605 23.7011 17.3633 23.1443 17.9201L16.8065 24.2579C16.2497 24.8148 15.3468 24.8148 14.79 24.2579L8.45221 17.9201C7.89536 17.3633 7.89536 16.4605 8.45221 15.9035C9.00905 15.3467 9.91187 15.3467 10.4688 15.9035L14.3704 19.8051V2.42593C14.3704 1.67779 14.9465 1.06422 15.6794 1.00473L15.7963 1L15.6794 1.00473Z" fill="#5AFF9C"/>
</svg>
