<svg width="32" height="32" viewBox="0 0 32 32" fill="none" xmlns="http://www.w3.org/2000/svg">
<path d="M13.4286 2.28571C12.9552 2.28571 12.5714 2.66947 12.5714 3.14285C12.5714 3.61623 12.9552 3.99999 13.4286 3.99999H15.1428V28H13.4286C12.9552 28 12.5714 28.3838 12.5714 28.8571C12.5714 29.3305 12.9552 29.7143 13.4286 29.7143H18.5714C19.0448 29.7143 19.4286 29.3305 19.4286 28.8571C19.4286 28.3838 19.0448 28 18.5714 28H16.8571V3.99999H18.5714C19.0448 3.99999 19.4286 3.61623 19.4286 3.14285C19.4286 2.66947 19.0448 2.28571 18.5714 2.28571H13.4286ZM7.14284 6.87952H14V25.1652H7.14284C5.0915 25.1652 3.42856 23.5023 3.42856 21.451V10.5938C3.42856 8.54247 5.0915 6.87952 7.14284 6.87952ZM24.8571 25.1652H18V6.87952H24.8571C26.9084 6.87952 28.5714 8.54247 28.5714 10.5938V21.451C28.5714 23.5023 26.9084 25.1652 24.8571 25.1652Z" fill="white"/>
</svg>
