<svg width="32" height="32" viewBox="0 0 32 32" fill="none" xmlns="http://www.w3.org/2000/svg">
<path d="M6.33332 16C6.33332 20.9907 10.1152 25.098 14.9695 25.6124C15.2379 26.5998 15.6764 27.5171 16.2517 28.3308C16.168 28.3326 16.0841 28.3334 16 28.3334C9.18848 28.3334 3.66666 22.8115 3.66666 16C3.66666 15.4899 3.69762 14.9871 3.75778 14.4932C3.84091 13.8108 4.4453 13.3334 5.13279 13.3334C5.9209 13.3334 6.48898 14.0914 6.39818 14.8742C6.35535 15.2435 6.33332 15.6192 6.33332 16ZM17.0795 17.3334C18.1139 16.2554 19.4244 15.4443 20.8972 15.0138C20.6604 14.7982 20.3456 14.6667 20 14.6667H17.3333V10.6667C17.3333 9.93031 16.7364 9.33335 16 9.33335C15.2636 9.33335 14.6667 9.93031 14.6667 10.6667V16C14.6667 16.7364 15.2636 17.3334 16 17.3334H17.0795ZM28.3308 16.2518C27.5171 15.6764 26.5997 15.2379 25.6124 14.9695C25.098 10.1152 20.9907 6.33335 16 6.33335C13.7839 6.33335 11.7419 7.07911 10.1113 8.33335H11C11.7364 8.33335 12.3333 8.93031 12.3333 9.66669C12.3333 10.4031 11.7364 11 11 11H6.99999C6.26362 11 5.66666 10.4031 5.66666 9.66669V9.33335H5.62195L5.66666 9.26441V5.66669C5.66666 4.93031 6.26362 4.33335 6.99999 4.33335C7.73636 4.33335 8.33332 4.93031 8.33332 5.66669V6.33849C10.4383 4.66587 13.1025 3.66669 16 3.66669C22.8115 3.66669 28.3333 9.18851 28.3333 16C28.3333 16.0842 28.3325 16.168 28.3308 16.2518ZM30.6667 23.3334C30.6667 27.3835 27.3835 30.6667 23.3333 30.6667C19.2832 30.6667 16 27.3835 16 23.3334C16 19.2832 19.2832 16 23.3333 16C27.3835 16 30.6667 19.2832 30.6667 23.3334ZM21.1381 20.1952C20.8777 19.935 20.4556 19.935 20.1952 20.1952C19.9349 20.4556 19.9349 20.8778 20.1952 21.1382L22.3905 23.3334L20.1952 25.5286C19.9349 25.789 19.9349 26.2111 20.1952 26.4715C20.4556 26.7318 20.8777 26.7318 21.1381 26.4715L23.3333 24.2762L25.5285 26.4715C25.7889 26.7318 26.2111 26.7318 26.4715 26.4715C26.7317 26.2111 26.7317 25.789 26.4715 25.5286L24.2761 23.3334L26.4715 21.1382C26.7317 20.8778 26.7317 20.4556 26.4715 20.1952C26.2111 19.935 25.7889 19.935 25.5285 20.1952L23.3333 22.3906L21.1381 20.1952Z" fill="white"/>
</svg>
