<svg width="32" height="32" viewBox="0 0 32 32" fill="none" xmlns="http://www.w3.org/2000/svg">
<path d="M17.0044 2.66666C18.5479 2.66666 19.8188 3.83398 19.9823 5.33394L22.3333 5.33332C23.9212 5.33332 25.2208 6.56687 25.3264 8.12792L25.3333 8.33332C25.3333 8.83891 24.9576 9.25675 24.4701 9.32287L24.332 9.33199C23.8264 9.33199 23.4085 8.95628 23.3424 8.46883L23.3333 8.33332C23.3333 7.82706 22.9571 7.40867 22.4691 7.34246L22.3333 7.33332L19.4901 7.33442C18.9521 8.1327 18.0396 8.65772 17.0044 8.65772H12.3289C11.2937 8.65772 10.3813 8.1327 9.84316 7.33442L7 7.33332C6.49373 7.33332 6.07535 7.70952 6.00913 8.19763L6 8.33332V26.3395C6 26.8457 6.3762 27.2641 6.86431 27.3303L7 27.3395L11 27.3388C11.5062 27.3388 11.9246 27.7148 11.9909 28.2028L12 28.3387C12 28.8909 11.5523 29.3388 11 29.3388L7 29.3395C5.41219 29.3395 4.11248 28.1059 4.00692 26.5448L4 26.3395V8.33332C4 6.74551 5.23355 5.4458 6.7946 5.34024L7 5.33332L9.35111 5.33394C9.5146 3.83398 10.7854 2.66666 12.3289 2.66666H17.0044ZM25 10.6667C26.5879 10.6667 27.8875 11.9002 27.9931 13.4613L28 13.6667V26.3333C28 27.9212 26.7664 29.2208 25.2053 29.3264L25 29.3333H16.3333C14.7455 29.3333 13.4459 28.0997 13.3403 26.5387L13.3333 26.3333V13.6667C13.3333 12.0788 14.5669 10.7791 16.128 10.6736L16.3333 10.6667H25ZM17.0044 4.66666H12.3289C11.7791 4.66666 11.3333 5.11238 11.3333 5.66219C11.3333 6.21202 11.7791 6.65772 12.3289 6.65772H17.0044C17.5543 6.65772 18 6.21202 18 5.66219C18 5.11238 17.5543 4.66666 17.0044 4.66666Z" fill="white"/>
</svg>
