<svg width="32" height="32" viewBox="0 0 32 32" fill="none" xmlns="http://www.w3.org/2000/svg">
<path d="M10.4392 3.25257C10.0278 2.64185 9.19916 2.48029 8.58843 2.89172C7.97771 3.30315 7.81615 4.13176 8.22757 4.74248L14.6179 14.2281L11.5157 19.1316C10.8495 18.8325 10.1109 18.6661 9.33333 18.6661C6.38781 18.6661 4 21.054 4 23.9995C4 26.9449 6.38781 29.3328 9.33333 29.3328C12.2789 29.3328 14.6667 26.9449 14.6667 23.9995C14.6667 22.8039 14.2733 21.7003 13.6089 20.8108L16.2452 16.6437L18.7568 20.3721C17.8735 21.3239 17.3333 22.5985 17.3333 23.9995C17.3333 26.9449 19.7212 29.3328 22.6667 29.3328C25.6121 29.3328 28 26.9449 28 23.9995C28 21.054 25.6121 18.6661 22.6667 18.6661C22.0852 18.6661 21.5255 18.7592 21.0015 18.9312L16.1759 11.7655L16.1751 11.7668L10.4392 3.25257ZM6.66667 23.9995C6.66667 22.5267 7.86057 21.3328 9.33333 21.3328C10.8061 21.3328 12 22.5267 12 23.9995C12 25.4723 10.8061 26.6661 9.33333 26.6661C7.86057 26.6661 6.66667 25.4723 6.66667 23.9995ZM20 23.9995C20 22.5267 21.1939 21.3328 22.6667 21.3328C24.1395 21.3328 25.3333 22.5267 25.3333 23.9995C25.3333 25.4723 24.1395 26.6661 22.6667 26.6661C21.1939 26.6661 20 25.4723 20 23.9995ZM19.3603 11.7198L23.7936 4.71228C24.1872 4.08999 24.0019 3.26636 23.3796 2.87267C22.7573 2.47896 21.9337 2.66428 21.54 3.28659L17.7331 9.30401L19.3603 11.7198Z" fill="white"/>
</svg>
