<svg width="32" height="32" viewBox="0 0 32 32" fill="none" xmlns="http://www.w3.org/2000/svg">
<path d="M7.33706 6.16938L7.33333 8.99999V23.0056C7.33333 25.3988 9.27342 27.3389 11.6667 27.3389L23.1551 27.3393C22.7431 28.5043 21.632 29.3389 20.3259 29.3389H11.6667C8.16886 29.3389 5.33333 26.5035 5.33333 23.0056V8.99999C5.33333 7.69238 6.16993 6.58015 7.33706 6.16938ZM23.6667 2.66666C25.3235 2.66666 26.6667 4.0098 26.6667 5.66666V23C26.6667 24.6568 25.3235 26 23.6667 26H11.6667C10.0098 26 8.66666 24.6568 8.66666 23V5.66666C8.66666 4.0098 10.0098 2.66666 11.6667 2.66666H23.6667Z" fill="white"/>
</svg>
