<svg width="32" height="32" viewBox="0 0 32 32" fill="none" xmlns="http://www.w3.org/2000/svg">
<path d="M10.6667 16C13.6122 16 16 13.6122 16 10.6667C16 7.72113 13.6122 5.33333 10.6667 5.33333C7.72113 5.33333 5.33333 7.72113 5.33333 10.6667C5.33333 13.6122 7.72113 16 10.6667 16ZM22.6667 16C24.8758 16 26.6667 14.2091 26.6667 12C26.6667 9.79086 24.8758 7.99999 22.6667 7.99999C20.4575 7.99999 18.6667 9.79086 18.6667 12C18.6667 14.2091 20.4575 16 22.6667 16ZM4.5 18C3.11929 18 2 19.1193 2 20.5V21.3333C2 21.3333 2 27.3333 10.6667 27.3333C19.3333 27.3333 19.3333 21.3333 19.3333 21.3333V20.5C19.3333 19.1193 18.2141 18 16.8333 18H4.5ZM19.1159 25.3926C20.0335 25.7645 21.1953 26 22.6661 26C29.6661 26 29.6661 20.6667 29.6661 20.6667V20.5C29.6661 19.1193 28.5468 18 27.1661 18H19.7383C20.3162 18.6712 20.6655 19.5448 20.6655 20.5V21.3366V21.34V21.3472L20.6654 21.3631C20.6652 21.3745 20.665 21.3871 20.6647 21.4011C20.664 21.4291 20.6628 21.4624 20.6609 21.5007C20.657 21.5773 20.6501 21.6741 20.6377 21.7886C20.6129 22.0168 20.5661 22.3192 20.4771 22.6714C20.2997 23.3739 19.9473 24.3009 19.2463 25.2255C19.2039 25.2816 19.1604 25.3373 19.1159 25.3926Z" fill="white"/>
</svg>
