<svg width="32" height="32" viewBox="0 0 32 32" fill="none" xmlns="http://www.w3.org/2000/svg">
<path d="M32 11.625C32 16.9408 27.8528 21.25 22.7368 21.25C17.6209 21.25 13.4737 16.9408 13.4737 11.625C13.4737 6.30925 17.6209 2 22.7368 2C27.8528 2 32 6.30925 32 11.625ZM19.9639 7.50629C19.635 7.16456 19.1018 7.16456 18.7729 7.50629C18.4441 7.84799 18.4441 8.40201 18.7729 8.74371L21.5459 11.625L18.7729 14.5063C18.4441 14.848 18.4441 15.402 18.7729 15.7437C19.1018 16.0854 19.635 16.0854 19.9639 15.7437L22.7368 12.8624L25.5097 15.7437C25.8386 16.0854 26.3719 16.0854 26.7008 15.7437C27.0295 15.402 27.0295 14.848 26.7008 14.5063L23.9277 11.625L26.7008 8.74371C27.0295 8.40201 27.0295 7.84799 26.7008 7.50629C26.3719 7.16456 25.8386 7.16456 25.5097 7.50629L22.7368 10.3876L19.9639 7.50629Z" fill="white"/>
<path d="M6.73685 17.75H13.5104C14.3788 19.1593 15.5379 20.3564 16.8999 21.25H6.73685C5.8067 21.25 5.05264 20.4665 5.05264 19.5C5.05264 18.6026 5.70282 17.8629 6.54044 17.7617L6.73685 17.75Z" fill="white"/>
<path d="M1.68421 9H12.0824C11.8909 9.84266 11.7895 10.7215 11.7895 11.625C11.7895 11.9194 11.8003 12.2112 11.8213 12.5H1.68421C0.754055 12.5 0 11.7165 0 10.75C0 9.85253 0.650173 9.11286 1.4878 9.01178L1.68421 9Z" fill="white"/>
<path d="M9.90882 26.5117L10.1052 26.5H16.8421C17.7723 26.5 18.5263 27.2835 18.5263 28.25C18.5263 29.1474 17.8762 29.8871 17.0385 29.9883L16.8421 30H10.1052C9.17508 30 8.42102 29.2165 8.42102 28.25C8.42102 27.3526 9.07119 26.6129 9.90882 26.5117Z" fill="white"/>
</svg>
