<svg width="32" height="32" viewBox="0 0 32 32" fill="none" xmlns="http://www.w3.org/2000/svg">
<path d="M9.73685 13.75H16.5104C17.3788 15.1593 18.5379 16.3564 19.8999 17.25H9.73685C8.8067 17.25 8.05264 16.4665 8.05264 15.5C8.05264 14.6026 8.70282 13.8629 9.54044 13.7617L9.73685 13.75Z" fill="white"/>
<path d="M4.68421 5H15.0824C14.8909 5.84266 14.7895 6.72153 14.7895 7.625C14.7895 7.91942 14.8003 8.21121 14.8213 8.5H4.68421C3.75406 8.5 3 7.71649 3 6.75C3 5.85253 3.65017 5.11286 4.4878 5.01178L4.68421 5Z" fill="white"/>
<path d="M12.9088 22.5117L13.1052 22.5H19.8421C20.7723 22.5 21.5263 23.2835 21.5263 24.25C21.5263 25.1474 20.8762 25.8871 20.0385 25.9883L19.8421 26H13.1052C12.1751 26 11.421 25.2165 11.421 24.25C11.421 23.3526 12.0712 22.6129 12.9088 22.5117Z" fill="white"/>
<path d="M22.7918 13.75H16.0169C15.1483 15.1593 13.989 16.3564 12.6267 17.25H22.7918C23.7221 17.25 24.4763 16.4665 24.4763 15.5C24.4763 14.6026 23.826 13.8629 22.9883 13.7617L22.7918 13.75Z" fill="white"/>
<path d="M27.6303 5H13C13.2694 5.84266 13.4121 6.72153 13.4121 7.625C13.4121 7.91942 13.3969 8.21121 13.3673 8.5H27.6303C28.939 8.5 30 7.71649 30 6.75C30 5.85253 29.0852 5.11286 27.9067 5.01178L27.6303 5Z" fill="white"/>
<path d="M19.6192 22.5117L19.4227 22.5H12.6845C11.7542 22.5 11 23.2835 11 24.25C11 25.1474 11.6502 25.8871 12.4881 25.9883L12.6845 26H19.4227C20.3531 26 21.1073 25.2165 21.1073 24.25C21.1073 23.3526 20.457 22.6129 19.6192 22.5117Z" fill="white"/>
</svg>
