<svg width="32" height="32" viewBox="0 0 32 32" fill="none" xmlns="http://www.w3.org/2000/svg">
<path d="M28.0002 18.4832C26.52 19.4722 24.78 20 23 20C20.613 20 18.3238 19.0518 16.636 17.364C14.9482 15.6761 14 13.387 14 11C14 9.21998 14.5278 7.47992 15.5168 5.99988C16.5058 4.51982 17.9114 3.36628 19.5558 2.68508C21.2004 2.0039 23.01 1.82567 24.7558 2.17294C26.5016 2.5202 28.1052 3.37736 29.364 4.63604C30.6226 5.89472 31.4798 7.49836 31.827 9.2442C32.1744 10.99 31.9962 12.7996 31.315 14.4442C30.6338 16.0887 29.4802 17.4943 28.0002 18.4832ZM23.7072 6.2929C23.5196 6.10536 23.2652 6 23 6C22.7348 6 22.4804 6.10536 22.2928 6.2929C22.1054 6.48044 22 6.73478 22 7V10H19C18.7348 10 18.4804 10.1054 18.2928 10.2929C18.1054 10.4804 18 10.7348 18 11C18 11.2652 18.1054 11.5196 18.2928 11.7071C18.4804 11.8946 18.7348 12 19 12H22V15C22 15.2652 22.1054 15.5196 22.2928 15.7071C22.4804 15.8946 22.7348 16 23 16C23.2652 16 23.5196 15.8946 23.7072 15.7071C23.8946 15.5196 24 15.2652 24 15V12H27C27.2652 12 27.5196 11.8946 27.7072 11.7071C27.8946 11.5196 28 11.2652 28 11C28 10.7348 27.8946 10.4804 27.7072 10.2929C27.5196 10.1054 27.2652 10 27 10H24V7C24 6.73478 23.8946 6.48044 23.7072 6.2929ZM12.0448 10C12.0151 10.3294 12 10.6629 12 11C12 11.683 12.0622 12.3514 12.1814 13H1.5C0.671579 13 0 12.3284 0 11.5C0 10.6716 0.671579 10 1.5 10H12.0448ZM14.9532 18.5C16.2372 19.8769 17.8702 20.924 19.7114 21.5H5.49999C4.67157 21.5 4 20.8284 4 20C4 19.1716 4.67157 18.5 5.49999 18.5H14.9532ZM18.5 27C19.3284 27 20 27.6716 20 28.5C20 29.3284 19.3284 30 18.5 30H9.49999C8.67157 30 7.99999 29.3284 7.99999 28.5C7.99999 27.6716 8.67157 27 9.49999 27H18.5Z" fill="white"/>
</svg>
