<svg width="32" height="32" viewBox="0 0 32 32" fill="none" xmlns="http://www.w3.org/2000/svg">
<path d="M28.5514 12.9876C28.0211 12.2195 27.4121 11.4826 26.7666 10.8369C20.8507 4.92104 11.2592 4.92104 5.3433 10.8369C4.72193 11.4583 4.12105 12.193 3.57663 12.9778C3.19885 13.5223 3.33405 14.27 3.8786 14.6477C4.42313 15.0255 5.17081 14.8903 5.54857 14.3458C6.01551 13.6727 6.52679 13.0475 7.04036 12.5339C12.019 7.55536 20.0909 7.55536 25.0694 12.5339C25.6101 13.0746 26.1266 13.6996 26.5762 14.3509C26.9525 14.8963 27.6998 15.0333 28.2453 14.6568C28.7907 14.2804 28.9278 13.533 28.5514 12.9876ZM11.3819 17.6806C13.1891 15.8734 15.7826 15.3317 18.0611 16.0555C17.2616 16.6317 16.5626 17.3387 15.9955 18.1454C14.9383 18.1603 13.8857 18.571 13.079 19.3778C12.7163 19.7403 12.4208 20.1837 12.2038 20.6797C11.9381 21.2869 11.2305 21.5637 10.6234 21.2979C10.0162 21.0323 9.73937 20.3248 10.005 19.7176C10.3386 18.9552 10.801 18.2614 11.3819 17.6806ZM23.344 13.8579C23.5245 14.0383 23.699 14.2278 23.867 14.4249C23.6469 14.4084 23.4243 14.4 23.2 14.4C22.337 14.4 21.5029 14.5243 20.7147 14.7559C17.6213 12.4946 13.2568 12.761 10.4628 15.555C9.86268 16.155 9.37551 16.8294 9.00033 17.5712C8.70119 18.1626 7.97927 18.3995 7.38788 18.1003C6.79649 17.8011 6.55956 17.0794 6.8587 16.4878C7.3482 15.5201 7.98518 14.6385 8.76575 13.8579C12.7914 9.83223 19.3184 9.83223 23.344 13.8579ZM19.3067 18.3075C19.792 20.0373 18.7584 21.8277 17.0176 22.2723L16.28 22.4606C16.256 22.7038 16.2437 22.9506 16.2437 23.2002C16.2437 23.5005 16.2614 23.7963 16.296 24.087L16.8554 24.2192C18.6464 24.6427 19.712 26.4861 19.185 28.2496L18.9829 28.9261C19.3944 29.2512 19.8419 29.5299 20.3184 29.7547L20.8382 29.204C22.1021 27.8659 24.2312 27.867 25.4936 29.2066L26.0333 29.7792C26.5011 29.5634 26.9417 29.2957 27.3483 28.983L27.0984 28.0925C26.6131 26.3626 27.6467 24.5723 29.3875 24.1277L30.1243 23.9394C30.1483 23.6963 30.1606 23.4498 30.1606 23.2002C30.1606 22.8997 30.1429 22.6035 30.1083 22.3128L29.5499 22.1808C27.7587 21.7573 26.6931 19.9139 27.2202 18.1504L27.4221 17.4747C27.0104 17.1494 26.5629 16.8707 26.0864 16.6458L25.5669 17.1958C24.3032 18.5339 22.1739 18.5328 20.9117 17.1934L20.3718 16.6206C19.904 16.8365 19.4634 17.1042 19.0568 17.4166L19.3067 18.3075ZM23.2022 24.8002C22.3186 24.8002 21.6022 24.0838 21.6022 23.2002C21.6022 22.3165 22.3186 21.6002 23.2022 21.6002C24.0858 21.6002 24.8022 22.3165 24.8022 23.2002C24.8022 24.0838 24.0858 24.8002 23.2022 24.8002Z" fill="white"/>
</svg>
