<svg width="32" height="32" viewBox="0 0 32 32" fill="none" xmlns="http://www.w3.org/2000/svg">
<path d="M26.8333 8.33333C28.1695 8.33333 29.2609 9.3816 29.3299 10.7005L29.3333 10.8333L29.3339 16.0376C27.9185 14.7705 26.0493 14 24 14C19.5817 14 16 17.5817 16 22C16 23.4575 16.3897 24.8239 17.0707 26.0007L5.16666 26C3.83048 26 2.73914 24.9517 2.67012 23.6328L2.66666 23.5V12.666L11.8691 12.6667L12.0198 12.6621C12.6699 12.6229 13.2795 12.3312 13.7179 11.8495L13.816 11.735L16.5553 8.33333H26.8333ZM24 15.3333C27.6819 15.3333 30.6667 18.3181 30.6667 22C30.6667 25.6819 27.6819 28.6667 24 28.6667C20.3181 28.6667 17.3333 25.6819 17.3333 22C17.3333 18.3181 20.3181 15.3333 24 15.3333ZM24 18C23.6581 18 23.3763 18.2573 23.3378 18.5889L23.3333 18.6667V21.3333H20.6667C20.3248 21.3333 20.043 21.5907 20.0045 21.9223L20 22C20 22.3419 20.2573 22.6237 20.5889 22.6622L20.6667 22.6667H23.3333V25.3333C23.3333 25.6752 23.5907 25.957 23.9223 25.9955L24 26C24.3419 26 24.6237 25.7427 24.6622 25.4111L24.6667 25.3333V22.6667H27.3333C27.6752 22.6667 27.957 22.4093 27.9955 22.0777L28 22C28 21.6581 27.7427 21.3763 27.4111 21.3378L27.3333 21.3333H24.6667V18.6667C24.6667 18.3248 24.4093 18.043 24.0777 18.0045L24 18ZM11.3738 6C11.9289 6 12.4667 6.18469 12.9035 6.52262L13.0201 6.61856L14.6493 8.044L12.5181 10.6895L12.4551 10.7592C12.3221 10.8907 12.1487 10.9737 11.9629 10.9947L11.8691 11L2.66666 10.9993V8.5C2.66666 7.1638 3.7149 6.07249 5.03388 6.00347L5.16666 6H11.3738Z" fill="white"/>
</svg>
