<svg width="32" height="32" viewBox="0 0 32 32" fill="none" xmlns="http://www.w3.org/2000/svg">
<path d="M3 7.69444C3 5.10177 5.10177 3 7.69444 3H24.3056C26.8982 3 29 5.10177 29 7.69444V24.3056C29 26.8982 26.8982 29 24.3056 29H7.69444C5.10177 29 3 26.8982 3 24.3056V7.69444ZM16.7222 12.0278C16.7222 12.6261 17.2073 13.1111 17.8056 13.1111H22.8611C23.4594 13.1111 23.9444 12.6261 23.9444 12.0278C23.9444 11.4295 23.4594 10.9444 22.8611 10.9444H17.8056C17.2073 10.9444 16.7222 11.4295 16.7222 12.0278ZM17.8057 18.8889C17.2073 18.8889 16.7224 19.3739 16.7224 19.9722C16.7224 20.5705 17.2073 21.0556 17.8057 21.0556H22.861C23.4594 21.0556 23.9443 20.5705 23.9443 19.9722C23.9443 19.3739 23.4594 18.8889 22.861 18.8889H17.8057ZM14.2382 11.3494C14.6613 10.9263 14.6613 10.2404 14.2382 9.8173C13.8151 9.39424 13.1293 9.39424 12.7062 9.8173L10.5833 11.9402L9.90492 11.2617C9.48186 10.8387 8.79592 10.8387 8.37286 11.2617C7.94979 11.6848 7.94979 12.3707 8.37286 12.7938L9.8173 14.2382C10.2404 14.6613 10.9263 14.6613 11.3494 14.2382L14.2382 11.3494ZM14.2382 17.7618C13.8151 17.3387 13.1293 17.3387 12.7062 17.7618L10.5833 19.8845L9.90492 19.2062C9.48186 18.7832 8.79592 18.7832 8.37286 19.2062C7.94979 19.6293 7.94979 20.3151 8.37286 20.7382L9.8173 22.1827C10.2404 22.6057 10.9263 22.6057 11.3494 22.1827L14.2382 19.2938C14.6613 18.8707 14.6613 18.1849 14.2382 17.7618Z" fill="white"/>
</svg>
