<svg width="32" height="32" viewBox="0 0 32 32" fill="none" xmlns="http://www.w3.org/2000/svg">
<path d="M21.4024 6.70469C20.9559 7.29022 21.0685 8.12689 21.654 8.57345C23.9567 10.3295 25.3333 13.0494 25.3333 16C25.3333 20.6631 21.9136 24.5275 17.4453 25.2222L18.3905 24.2762C18.9112 23.7555 18.9112 22.9112 18.3905 22.3906C17.8699 21.8699 17.0256 21.8699 16.5049 22.3906L13.1716 25.7239C12.6509 26.2446 12.6509 27.0888 13.1716 27.6095L16.5049 30.9428C17.0256 31.4635 17.8699 31.4635 18.3905 30.9428C18.9112 30.4222 18.9112 29.5779 18.3905 29.0572L17.2663 27.934C23.2985 27.3014 28 22.1998 28 16C28 12.2086 26.2283 8.70831 23.2711 6.45306C22.6856 6.0065 21.8489 6.11917 21.4024 6.70469ZM18.8284 4.39054L15.4951 1.05721C14.9744 0.536512 14.1301 0.536512 13.6095 1.05721C13.1288 1.53786 13.0919 2.29417 13.4985 2.81722L13.6095 2.94283L14.7337 4.06603C8.70153 4.69867 4 9.8003 4 16C4 19.6264 5.6202 22.991 8.36213 25.2559C8.92987 25.7248 9.77028 25.6447 10.2392 25.077C10.7082 24.5092 10.6281 23.6688 10.0604 23.1999C7.92539 21.4363 6.66667 18.8224 6.66667 16C6.66667 11.3369 10.0863 7.47257 14.5547 6.77793L13.6095 7.72387C13.0888 8.24458 13.0888 9.08879 13.6095 9.6095C14.0901 10.0901 14.8464 10.1271 15.3695 9.72042L15.4951 9.6095L18.8284 6.27617C19.3091 5.79551 19.346 5.03921 18.9393 4.51615L18.8284 4.39054Z" fill="white"/>
</svg>
