<svg width="32" height="32" viewBox="0 0 32 32" fill="none" xmlns="http://www.w3.org/2000/svg">
<path d="M6 4.40001C6 5.06275 6.53726 5.60001 7.2 5.60001H24C24.6627 5.60001 25.2 5.06275 25.2 4.40001C25.2 3.73728 24.6627 3.20001 24 3.20001H7.2C6.53726 3.20001 6 3.73728 6 4.40001ZM6 27.6C6 28.2627 6.53726 28.8 7.2 28.8H9.3C9.96274 28.8 10.5 28.2627 10.5 27.6C10.5 26.9373 9.96274 26.4 9.3 26.4H7.2C6.53726 26.4 6 26.9373 6 27.6ZM12.3 27.6C12.3 28.2627 12.8373 28.8 13.5 28.8H17.7C18.3627 28.8 18.9 28.2627 18.9 27.6C18.9 26.9373 18.3627 26.4 17.7 26.4H13.5C12.8373 26.4 12.3 26.9373 12.3 27.6ZM20.7 27.6C20.7 28.2627 21.2373 28.8 21.9 28.8H24C24.6627 28.8 25.2 28.2627 25.2 27.6C25.2 26.9373 24.6627 26.4 24 26.4H21.9C21.2373 26.4 20.7 26.9373 20.7 27.6ZM16.4485 24.4485C15.9799 24.9171 15.2201 24.9171 14.7515 24.4485L7.95147 17.6485C7.48285 17.1799 7.48285 16.4202 7.95147 15.9515C8.4201 15.4829 9.1799 15.4829 9.64853 15.9515L14.4 20.7029V9.20001C14.4 8.53728 14.9373 8.00001 15.6 8.00001C16.2627 8.00001 16.8 8.53728 16.8 9.20001V20.7029L21.5515 15.9515C22.0202 15.4829 22.7798 15.4829 23.2485 15.9515C23.7171 16.4202 23.7171 17.1799 23.2485 17.6485L16.4485 24.4485Z" fill="white"/>
</svg>
