<svg width="32" height="32" viewBox="0 0 32 32" fill="none" xmlns="http://www.w3.org/2000/svg">
<path d="M16 2.66669V10.1667C16 11.5474 17.1193 12.6667 18.5 12.6667H26.6667V26.6667C26.6667 27.7713 25.7713 28.6667 24.6667 28.6667H15.4985C16.6481 27.1961 17.3333 25.3448 17.3333 23.3334C17.3333 18.5469 13.4531 14.6667 8.66668 14.6667C7.48548 14.6667 6.35946 14.903 5.33334 15.3309V4.66669C5.33334 3.56212 6.22878 2.66669 7.33334 2.66669H16ZM17.6667 2.97621V10.1667C17.6667 10.627 18.0397 11 18.5 11H26.3077L17.6667 2.97621ZM16 23.3334C16 27.3834 12.7167 30.6667 8.66668 30.6667C4.61659 30.6667 1.33334 27.3834 1.33334 23.3334C1.33334 19.2833 4.61659 16 8.66668 16C12.7167 16 16 19.2833 16 23.3334ZM9.33334 18.6667C9.33334 18.2985 9.03488 18 8.66668 18C8.29848 18 8.00001 18.2985 8.00001 18.6667V22.6667H4.00001C3.63182 22.6667 3.33334 22.9652 3.33334 23.3334C3.33334 23.7016 3.63182 24 4.00001 24H8.00001V28C8.00001 28.3682 8.29848 28.6667 8.66668 28.6667C9.03488 28.6667 9.33334 28.3682 9.33334 28V24H13.3333C13.7015 24 14 23.7016 14 23.3334C14 22.9652 13.7015 22.6667 13.3333 22.6667H9.33334V18.6667Z" fill="white"/>
</svg>
