<svg width="32" height="32" viewBox="0 0 32 32" fill="none" xmlns="http://www.w3.org/2000/svg">
<g clip-path="url(#clip0_205_15)">
<path d="M19 3C19 1.34375 17.6562 0 16 0C14.3438 0 13 1.34375 13 3C13 4.65625 14.3438 6 16 6C17.6562 6 19 4.65625 19 3ZM19 29C19 27.3438 17.6562 26 16 26C14.3438 26 13 27.3438 13 29C13 30.6562 14.3438 32 16 32C17.6562 32 19 30.6562 19 29ZM3 19C4.65625 19 6 17.6562 6 16C6 14.3438 4.65625 13 3 13C1.34375 13 0 14.3438 0 16C0 17.6562 1.34375 19 3 19ZM32 16C32 14.3438 30.6562 13 29 13C27.3438 13 26 14.3438 26 16C26 17.6562 27.3438 19 29 19C30.6562 19 32 17.6562 32 16ZM8.93125 27.3125C10.1 26.1437 10.1 24.2438 8.93125 23.0688C7.7625 21.8938 5.8625 21.9 4.6875 23.0688C3.5125 24.2375 3.51875 26.1375 4.6875 27.3125C5.85625 28.4875 7.75625 28.4813 8.93125 27.3125ZM8.93125 8.925C10.1 7.75625 10.1 5.85625 8.93125 4.68125C7.7625 3.50625 5.85625 3.5125 4.6875 4.6875C3.51875 5.8625 3.51875 7.75625 4.6875 8.93125C5.85625 10.1062 7.75625 10.1 8.93125 8.93125V8.925ZM23.0688 27.3125C24.2375 28.4813 26.1375 28.4813 27.3125 27.3125C28.4875 26.1437 28.4813 24.2438 27.3125 23.0688C26.1437 21.8938 24.2438 21.9 23.0688 23.0688C21.8938 24.2375 21.9 26.1375 23.0688 27.3125Z" fill="white"/>
</g>
<defs>
<clipPath id="clip0_205_15">
<rect width="32" height="32" fill="white"/>
</clipPath>
</defs>
</svg>
