<svg width="32" height="32" viewBox="0 0 32 32" fill="none" xmlns="http://www.w3.org/2000/svg">
<path d="M26.1152 14.3929L26.4002 14.4L26.693 14.3925L27.0733 14.36L27.2018 14.3431L27.2002 20.4721C27.2002 22.2552 27.0146 22.9017 26.6659 23.5537C26.3173 24.2056 25.8058 24.7171 25.1539 25.0657C24.5021 25.4144 23.8555 25.6 22.0725 25.6H8.32796C6.54492 25.6 5.89835 25.4144 5.24649 25.0657C4.59464 24.7171 4.08307 24.2056 3.73446 23.5537C3.40908 22.9453 3.22566 22.3414 3.20265 20.8141L3.20001 11.6938L14.8432 17.5155C15.0684 17.6281 15.3335 17.6281 15.5587 17.5155L23.4583 13.5659C23.9899 13.8948 24.5808 14.1372 25.2111 14.2735L25.5987 14.3431L25.8035 14.3686L26.1152 14.3929ZM7.98617 6.40245L21.3394 6.3994L21.2592 6.5754L21.1483 6.8518C21.0895 7.01048 21.0378 7.17192 20.9935 7.33636L20.9111 7.68573L20.8845 7.82626L20.8568 8.00108C20.8194 8.26418 20.8002 8.52984 20.8002 8.79999C20.8002 10.0597 21.2162 11.2223 21.9183 12.1579L22.14 12.4348L15.2009 15.9056L3.55793 10.0844C3.46547 10.0382 3.36833 10.0116 3.27123 10.0029C3.35328 9.28301 3.51012 8.86575 3.73446 8.44629C4.08307 7.79445 4.59464 7.28287 5.24649 6.93426C5.85489 6.60888 6.45868 6.42546 7.98617 6.40245ZM26.4002 4.79999C28.6093 4.79999 30.4002 6.59085 30.4002 8.79999C30.4002 11.0091 28.6093 12.8 26.4002 12.8C24.1911 12.8 22.4002 11.0091 22.4002 8.79999C22.4002 6.59085 24.1911 4.79999 26.4002 4.79999Z" fill="white"/>
</svg>
