<?xml version="1.0" encoding="utf-8"?>
<!-- Generator: Adobe Illustrator 27.2.0, SVG Export Plug-In . SVG Version: 6.00 Build 0)  -->
<svg version="1.1" id="Layer_1" xmlns="http://www.w3.org/2000/svg" xmlns:xlink="http://www.w3.org/1999/xlink" x="0px" y="0px"
	 viewBox="0 0 32 32" style="enable-background:new 0 0 32 32;" xml:space="preserve">
<style type="text/css">
	.st0{fill:#FFFFFF;stroke:#FFFFFF;stroke-width:0.1548;}
</style>
<path class="st0" d="M18.2,25.5l-7.3-20c-0.3-0.7-1-1.1-1.7-0.8C8.9,4.8,8.6,5.1,8.4,5.5l-7.3,20C0.9,26.2,1.3,27,2,27.3
	s1.4-0.1,1.7-0.8l2.2-6L6,20.4h7.4c0.1,0,0.1,0,0.1,0.1l2.2,6c0.3,0.7,1,1.1,1.7,0.8C18.1,27,18.5,26.2,18.2,25.5z M7,17.4l2.6-7.2
	c0-0.1,0.1-0.1,0.2-0.1c0,0,0.1,0,0.1,0.1l2.6,7.2c0,0.1,0,0.1-0.1,0.2l0,0H7.1C7,17.6,6.9,17.5,7,17.4C6.9,17.5,6.9,17.4,7,17.4
	L7,17.4z M24.8,10.6c-2.5,0-4.8,1.5-5.8,3.8c-0.3,0.7,0,1.5,0.7,1.8c0.7,0.3,1.5,0,1.7-0.7c0.5-1.3,1.8-2.2,3.2-2.2
	c2,0,3.5,1.7,3.5,3.7c0,0.1,0,0.1-0.1,0.1c-1.3,0-2.9,0.1-4.3,0.3c-3.3,0.4-5.3,2.3-5.3,5c0,1.5,0.5,2.8,1.5,3.7
	c0.9,0.9,2.1,1.3,3.5,1.3c1.9,0,3.5-0.5,4.7-1.5l0,0c0,0.8,0.6,1.4,1.3,1.4c0.7,0,1.3-0.6,1.3-1.4v-9C30.9,13.5,28.2,10.6,24.8,10.6
	L24.8,10.6z M23.5,24.7c-1.1,0-2.3-0.6-2.3-2.3c0-0.7,0.2-1.1,0.8-1.5c0.5-0.4,1.3-0.6,2.2-0.7c1.3-0.2,2.7-0.2,4-0.3
	c0.1,0,0.1,0.1,0.1,0.1l0,0C28.1,23.1,26.5,24.7,23.5,24.7z"/>
</svg>
