<?xml version="1.0" encoding="utf-8"?>
<!-- Generator: Adobe Illustrator 27.2.0, SVG Export Plug-In . SVG Version: 6.00 Build 0)  -->
<svg version="1.1" id="Layer_1" xmlns="http://www.w3.org/2000/svg" xmlns:xlink="http://www.w3.org/1999/xlink" x="0px" y="0px"
	 viewBox="0 0 32 32" style="enable-background:new 0 0 32 32;" xml:space="preserve">
<style type="text/css">
	.st0{fill:#FFFFFF;}
</style>
<path class="st0" d="M21.6,30h-4.4c-0.6,0-1.1-0.5-1.1-1.1v-1.7c0-0.5-0.2-1.1-0.6-1.4c-0.5-0.5-1.2-0.7-1.9-0.7
	c-1.3,0-2.5,1.2-2.5,2.6v1.3c0,0.6-0.5,1.1-1.1,1.1H5.5C3.6,30,2,28.4,2,26.5v-4.4C2,21.5,2.5,21,3.1,21c0,0,0,0,0,0h1.7
	c0.6,0,1.1-0.2,1.6-0.7c0.5-0.5,0.8-1.2,0.8-1.9c0-1.3-1.1-2.4-2.4-2.4H3.1C2.5,16,2,15.5,2,14.9c0,0,0,0,0,0v-4.4
	C2,8.6,3.6,7,5.5,7h3.5c0.3,0,0.5-0.2,0.5-0.5c0,0,0,0,0,0V6.1c0-2.3,1.8-4.1,4.1-4.1c0,0,0,0,0.1,0c2.2,0,4,1.9,4,4.1v0.4
	c0,0.3,0.2,0.5,0.5,0.5l0,0h3.5c1.9,0,3.4,1.5,3.4,3.4v3.5c0,0.3,0.2,0.5,0.5,0.5h0.4c2.3,0,4.1,1.8,4.1,4c0,2.3-1.8,4.1-4.1,4.1
	h-0.4c-0.3,0-0.5,0.2-0.5,0.5v3.5C25,28.5,23.5,30,21.6,30z"/>
</svg>
