<svg width="32" height="32" viewBox="0 0 32 32" fill="none" xmlns="http://www.w3.org/2000/svg">
<path d="M25.9864 7.42779C27.0395 8.78245 27.6665 10.4847 27.6665 12.3333C27.6665 15.3777 25.966 18.0249 23.4629 19.3769C22.5975 19.8444 21.5561 19.5563 20.8605 18.8607L13.1392 11.1393C12.4436 10.4437 12.1555 9.40242 12.623 8.53687C13.9749 6.03388 16.6221 4.33335 19.6665 4.33335C21.5152 4.33335 23.2176 4.96045 24.5723 6.01355L27.6263 2.95956C28.0168 2.56904 28.6499 2.56904 29.0404 2.95956C29.4309 3.35008 29.4309 3.98326 29.0404 4.37378L25.9864 7.42779ZM4.37376 29.0404L7.42761 25.9865C8.78229 27.0396 10.4845 27.6667 12.3332 27.6667C15.3776 27.6667 18.0248 25.9661 19.3767 23.4631C19.8443 22.5976 19.5561 21.5563 18.8605 20.8607L11.1392 13.1393C10.4436 12.4437 9.40223 12.1556 8.53669 12.6231C6.03369 13.9751 4.33317 16.6223 4.33317 19.6667C4.33317 21.5155 4.96028 23.2177 6.01339 24.5724L2.95955 27.6263C2.56903 28.0168 2.56903 28.6499 2.95955 29.0404C3.35007 29.4309 3.98324 29.4309 4.37376 29.0404Z" fill="white"/>
</svg>
