<svg width="32" height="32" viewBox="0 0 32 32" fill="none" xmlns="http://www.w3.org/2000/svg">
<path d="M3.49999 10.3333H16.75C17.1361 12.2352 18.8175 13.6667 20.8333 13.6667C22.8491 13.6667 24.5306 12.2352 24.9167 10.3333H28.5C28.9603 10.3333 29.3333 9.96027 29.3333 9.5C29.3333 9.03973 28.9603 8.66667 28.5 8.66667H24.9167C24.5306 6.7648 22.8491 5.33333 20.8333 5.33333C18.8175 5.33333 17.1361 6.7648 16.75 8.66667H3.49999C3.03975 8.66667 2.66666 9.03973 2.66666 9.5C2.66666 9.96027 3.03975 10.3333 3.49999 10.3333ZM3.49999 23H7.24999C7.63606 24.9019 9.31752 26.3333 11.3333 26.3333C13.3491 26.3333 15.0306 24.9019 15.4167 23H28.5C28.9603 23 29.3333 22.6269 29.3333 22.1667C29.3333 21.7064 28.9603 21.3333 28.5 21.3333H15.4167C15.0306 19.4315 13.3491 18 11.3333 18C9.31752 18 7.63606 19.4315 7.24999 21.3333H3.49999C3.03975 21.3333 2.66666 21.7064 2.66666 22.1667C2.66666 22.6269 3.03975 23 3.49999 23Z" fill="white"/>
</svg>
