<svg width="32" height="32" viewBox="0 0 32 32" fill="none" xmlns="http://www.w3.org/2000/svg">
<path d="M13.9725 8C13.9725 10.2091 12.2533 12 10.1325 12C8.01172 12 6.2925 10.2091 6.2925 8C6.2925 5.79087 8.01172 4 10.1325 4C12.2533 4 13.9725 5.79087 13.9725 8ZM6.6125 13.3333C5.37538 13.3333 4.3725 14.378 4.3725 15.6667V22C4.3725 25.3137 6.95133 28 10.1325 28C13.3137 28 15.8925 25.3137 15.8925 22V15.6667C15.8925 14.378 14.8896 13.3333 13.6525 13.3333H6.6125ZM14.4335 27.8059C16.0994 26.4648 17.1723 24.3629 17.1723 22V15.6667C17.1723 14.7803 16.8704 13.9673 16.3677 13.3333H19.4123C20.6495 13.3333 21.6523 14.378 21.6523 15.6667V22C21.6523 25.3137 19.0735 28 15.8923 28C15.3883 28 14.8994 27.9325 14.4335 27.8059ZM15.2523 8C15.2523 9.33257 14.7831 10.551 14.0075 11.4858C14.5643 11.8132 15.2074 12 15.8923 12C18.013 12 19.7323 10.2091 19.7323 8C19.7323 5.79087 18.013 4 15.8923 4C15.2074 4 14.5643 4.18681 14.0075 4.51419C14.7831 5.44901 15.2523 6.66743 15.2523 8ZM20.1935 27.8059C21.8594 26.4648 22.9323 24.3629 22.9323 22V15.6667C22.9323 14.7803 22.6304 13.9673 22.1277 13.3333H25.1723C26.4095 13.3333 27.4123 14.378 27.4123 15.6667V22C27.4123 25.3137 24.8335 28 21.6523 28C21.1483 28 20.6594 27.9325 20.1935 27.8059ZM21.0123 8C21.0123 9.33257 20.5431 10.551 19.7675 11.4858C20.3243 11.8132 20.9674 12 21.6523 12C23.773 12 25.4923 10.2091 25.4923 8C25.4923 5.79087 23.773 4 21.6523 4C20.9674 4 20.3243 4.18681 19.7675 4.51419C20.5431 5.44901 21.0123 6.66743 21.0123 8Z" fill="white"/>
</svg>
