<svg width="32" height="32" viewBox="0 0 32 32" fill="none" xmlns="http://www.w3.org/2000/svg">
<path d="M22.9489 2.98332C23.1236 2.4594 22.8405 1.89304 22.3167 1.71832C21.7927 1.5436 21.2264 1.82669 21.0516 2.35061L20.0516 5.34925C19.8769 5.87317 20.16 6.43953 20.6839 6.61425C21.2079 6.78897 21.7741 6.50588 21.9489 5.98196L22.9489 2.98332ZM29.0404 2.95986C29.4309 3.3504 29.4309 3.98356 29.0404 4.37408L25.7071 7.70741C25.3165 8.09794 24.6835 8.09794 24.2929 7.70741C23.9024 7.31689 23.9024 6.68373 24.2929 6.2932L27.6263 2.95986C28.0168 2.56934 28.6499 2.56934 29.0404 2.95986ZM17.1608 4.98814C15.6729 3.39424 13.0481 3.7936 12.1017 5.75786L4.23798 22.0787C3.78394 23.021 3.9925 24.1488 4.75351 24.8666L6.67182 26.6756C7.37491 27.3387 8.40708 27.5154 9.29066 27.1239L11.1806 26.2866C12.0367 28.0882 13.8731 29.3336 16.0004 29.3336C18.946 29.3336 21.3337 26.9459 21.3337 24.0003C21.3337 23.28 21.1909 22.593 20.9321 21.9662L25.492 19.9459C27.4412 19.0823 27.9572 16.5546 26.5025 14.9962L17.1608 4.98814ZM19.1021 22.7768C19.2516 23.1556 19.3337 23.5684 19.3337 24.0003C19.3337 25.8412 17.8415 27.3336 16.0004 27.3336C14.6892 27.3336 13.5549 26.5766 13.0106 25.4758L19.1021 22.7768ZM25.3333 10.9993C25.3333 10.4471 25.7811 9.99933 26.3333 9.99933H29C29.5523 9.99933 30 10.4471 30 10.9993C30 11.5516 29.5523 11.9993 29 11.9993H26.3333C25.7811 11.9993 25.3333 11.5516 25.3333 10.9993Z" fill="white"/>
</svg>
