<svg width="32" height="32" viewBox="0 0 32 32" fill="none" xmlns="http://www.w3.org/2000/svg">
<path d="M14.7 7.0776V9C14.7 9.73637 15.282 10.3333 16 10.3333C16.718 10.3333 17.3 9.73637 17.3 9V7.0776C22.3638 7.68625 26.3809 11.8064 26.9743 17H25.1C24.382 17 23.8 17.5969 23.8 18.3333C23.8 19.0697 24.382 19.6667 25.1 19.6667H26.9708C26.6812 22.0895 25.6145 24.2644 24.0595 25.9873C23.6937 26.3927 23.7174 27.0253 24.1126 27.4005C24.5078 27.7757 25.1247 27.7513 25.4905 27.346C27.6254 24.9805 29 21.8435 29 18.3333C29 10.9695 23.1796 5 16 5C8.82029 5 3 10.9695 3 18.3333C3 21.8435 4.37456 24.9805 6.50949 27.346C6.87529 27.7513 7.49216 27.7757 7.88734 27.4005C8.28248 27.0253 8.3063 26.3927 7.94051 25.9873C6.38547 24.2644 5.31876 22.0895 5.02916 19.6667H6.9C7.61796 19.6667 8.2 19.0697 8.2 18.3333C8.2 17.5969 7.61796 17 6.9 17H5.02566C5.26916 14.869 6.08906 12.9187 7.32116 11.3176L8.58076 12.6095C9.08845 13.1302 9.91155 13.1302 10.4192 12.6095C10.9269 12.0888 10.9269 11.2446 10.4192 10.7239L9.15965 9.43196C10.7208 8.16827 12.6223 7.32735 14.7 7.0776ZM22.1866 11.1788C21.8769 10.9329 21.4371 10.9415 21.1371 11.1992L20.8547 11.4422C20.6748 11.5972 20.4173 11.8193 20.1064 12.0881C19.485 12.6256 18.6502 13.35 17.7974 14.0971C16.9451 14.8438 16.0721 15.6154 15.3756 16.2465C15.0277 16.5617 14.7204 16.8451 14.4803 17.0741C14.2571 17.2872 14.0482 17.4943 13.9346 17.6383C13.0857 18.7151 13.2674 20.2784 14.3404 21.1303C15.4134 21.982 16.9714 21.7997 17.8203 20.7231C17.9339 20.5789 18.0866 20.3273 18.2418 20.0604C18.4088 19.7732 18.6129 19.4079 18.8385 18.9956C19.2904 18.1703 19.838 17.1404 20.366 16.1363C20.8944 15.1316 21.4049 14.1497 21.7832 13.4192C21.9723 13.0539 22.1285 12.7513 22.2374 12.5399L22.4082 12.2082C22.589 11.856 22.4962 11.4246 22.1866 11.1788Z" fill="white"/>
</svg>
