<svg width="32" height="32" viewBox="0 0 32 32" fill="none" xmlns="http://www.w3.org/2000/svg">
<path d="M17.3 7.0779V9.00058C17.3 9.73706 16.718 10.3341 16 10.3341C15.282 10.3341 14.7 9.73706 14.7 9.00058V7.0779C9.63624 7.68664 5.61911 11.8074 5.02566 17.0017H6.9C7.61799 17.0017 8.2 17.5988 8.2 18.3353C8.2 19.0718 7.61799 19.6688 6.9 19.6688H5.02917C5.31881 22.0919 6.38546 24.2672 7.94052 25.9904C8.30634 26.3958 8.28255 27.0285 7.88735 27.4038C7.49215 27.779 6.8753 27.7546 6.50948 27.3492C4.37462 24.9834 3 21.8459 3 18.3353C3 10.9704 8.82036 5 16 5C23.1797 5 29 10.9704 29 18.3353C29 21.8459 27.6254 24.9834 25.4905 27.3492C25.1247 27.7546 24.5078 27.779 24.1127 27.4038C23.7175 27.0285 23.6937 26.3958 24.0595 25.9904C25.6145 24.2672 26.6812 22.0919 26.9708 19.6688H25.1C24.382 19.6688 23.8 19.0718 23.8 18.3353C23.8 17.5988 24.382 17.0017 25.1 17.0017H26.9743C26.7308 14.8704 25.9109 12.9199 24.6788 11.3185L23.4192 12.6106C22.9116 13.1314 22.0884 13.1314 21.5808 12.6106C21.0731 12.0898 21.0731 11.2455 21.5808 10.7247L22.8404 9.4326C21.2792 8.16873 19.3777 7.32768 17.3 7.0779ZM9.81343 11.1797C10.1231 10.9338 10.5629 10.9423 10.8629 11.2001L11.1453 11.4432C11.3252 11.5982 11.5827 11.8203 11.8936 12.0891C12.515 12.6267 13.3498 13.3512 14.2026 14.0985C15.0549 14.8452 15.9279 15.6169 16.6244 16.2482C16.9723 16.5634 17.2796 16.8468 17.5197 17.0759C17.7429 17.289 17.9518 17.4961 18.0654 17.6401C18.9143 18.7171 18.7326 20.2806 17.6596 21.1326C16.5866 21.9845 15.0286 21.8022 14.1797 20.7253C14.0661 20.5812 13.9134 20.3296 13.7582 20.0626C13.5912 19.7753 13.3871 19.41 13.1615 18.9976C12.7096 18.1722 12.162 17.1422 11.634 16.1379C11.1056 15.1331 10.5951 14.151 10.2168 13.4204C10.0277 13.055 9.87154 12.7524 9.7626 12.541L9.59178 12.2093C9.41095 11.857 9.50377 11.4256 9.81343 11.1797Z" fill="white"/>
</svg>
