<svg width="32" height="32" viewBox="0 0 32 32" fill="none" xmlns="http://www.w3.org/2000/svg">
<path d="M14.6667 4.74427V6.66667C14.6667 7.40305 15.2636 8.00001 16 8.00001C16.7364 8.00001 17.3333 7.40305 17.3333 6.66667V4.74427C22.5269 5.35293 26.6471 9.4731 27.2557 14.6667H25.3333C24.5969 14.6667 24 15.2636 24 16C24 16.7364 24.5969 17.3333 25.3333 17.3333H27.2521C26.9551 19.7561 25.8611 21.9311 24.2661 23.654C23.8909 24.0593 23.9153 24.692 24.3207 25.0672C24.726 25.4424 25.3587 25.418 25.7339 25.0127C27.9235 22.6472 29.3333 19.5101 29.3333 16C29.3333 8.63621 23.3637 2.66667 16 2.66667C8.63619 2.66667 2.66666 8.63621 2.66666 16C2.66666 19.5101 4.07646 22.6472 6.26614 25.0127C6.64131 25.418 7.274 25.4424 7.67931 25.0672C8.08459 24.692 8.10902 24.0593 7.73384 23.654C6.13894 21.9311 5.04487 19.7561 4.74784 17.3333H6.66666C7.40303 17.3333 7.99999 16.7364 7.99999 16C7.99999 15.2636 7.40303 14.6667 6.66666 14.6667H4.74426C4.994 12.5357 5.83492 10.5854 7.09862 8.98426L8.39051 10.2762C8.91122 10.7968 9.75543 10.7968 10.2761 10.2762C10.7968 9.75545 10.7968 8.91123 10.2761 8.39053L8.98424 7.09863C10.5854 5.83494 12.5357 4.99402 14.6667 4.74427ZM22.3452 8.84546C22.0276 8.59962 21.5765 8.60815 21.2688 8.86583L20.9792 9.1089C20.7947 9.26387 20.5305 9.48601 20.2117 9.75479C19.5744 10.2923 18.7181 11.0167 17.8435 11.7638C16.9693 12.5104 16.074 13.2821 15.3596 13.9132C15.0028 14.2284 14.6876 14.5117 14.4413 14.7408C14.2124 14.9539 13.9981 15.1609 13.8816 15.3049C13.011 16.3817 13.1973 17.9451 14.2979 18.7969C15.3984 19.6487 16.9963 19.4664 17.8669 18.3897C17.9835 18.2456 18.1401 17.994 18.2993 17.7271C18.4705 17.4399 18.6799 17.0745 18.9113 16.6623C19.3748 15.8369 19.9364 14.8071 20.478 13.8029C21.0199 12.7983 21.5435 11.8164 21.9315 11.0858C22.1255 10.7205 22.2856 10.4179 22.3973 10.2066L22.5725 9.8749C22.758 9.52271 22.6628 9.0913 22.3452 8.84546Z" fill="white"/>
</svg>
