<svg width="32" height="32" viewBox="0 0 32 32" fill="none" xmlns="http://www.w3.org/2000/svg">
<path d="M17.3277 16.018L27.9494 6.46425C28.6835 5.80392 28.6835 4.73616 27.9494 4.08286L26.1843 2.49524C25.4502 1.83492 24.263 1.83492 23.5367 2.49524L16.0078 9.26714L8.4789 2.49524C7.74476 1.83492 6.55763 1.83492 5.8313 2.49524L4.0506 4.07582C3.31647 4.73616 3.31647 5.80392 4.0506 6.45723L14.6723 16.011C15.4064 16.6783 16.5935 16.6783 17.3277 16.0184V16.018ZM14.6723 29.5056L4.0506 19.9519C3.31647 19.2915 3.31647 18.2238 4.0506 17.5705L5.81568 15.9828C6.54984 15.3225 7.73695 15.3225 8.4633 15.9828L16 22.7477L23.5289 15.9758C24.263 15.3155 25.4502 15.3155 26.1765 15.9758L27.9494 17.5634C28.6835 18.2238 28.6835 19.2915 27.9494 19.9448L17.3277 29.4985C16.5935 30.1659 15.4064 30.1659 14.6723 29.5059V29.5056Z" fill="white"/>
</svg>
