<svg width="32" height="32" viewBox="0 0 32 32" fill="none" xmlns="http://www.w3.org/2000/svg">
<path d="M2.28571 16C2.28571 23.5742 8.4258 29.7143 16 29.7143C23.5742 29.7143 29.7143 23.5742 29.7143 16C29.7143 8.42581 23.5742 2.28572 16 2.28572C8.4258 2.28572 2.28571 8.42581 2.28571 16ZM17.4286 9.14286C17.4286 9.93184 16.789 10.5714 16 10.5714C15.211 10.5714 14.5714 9.93184 14.5714 9.14286C14.5714 8.35388 15.211 7.71429 16 7.71429C16.789 7.71429 17.4286 8.35388 17.4286 9.14286ZM16 12.5714C16.6312 12.5714 17.1428 13.0831 17.1428 13.7143V22.8571C17.1428 23.4883 16.6312 24 16 24C15.3688 24 14.8571 23.4883 14.8571 22.8571V13.7143C14.8571 13.0831 15.3688 12.5714 16 12.5714Z" fill="#FDAE50"/>
</svg>
