<svg width="32" height="32" viewBox="0 0 32 32" fill="none" xmlns="http://www.w3.org/2000/svg">
<path d="M16 10.6667V2.66669H8.00001C6.52725 2.66669 5.33334 3.86059 5.33334 5.33335V26.6667C5.33334 28.1395 6.52725 29.3334 8.00001 29.3334H24C25.4728 29.3334 26.6667 28.1395 26.6667 26.6667V13.3334H18.6667C17.1939 13.3334 16 12.1394 16 10.6667ZM11 15.3334H21C21.5523 15.3334 22 15.7811 22 16.3334C22 16.8856 21.5523 17.3334 21 17.3334H11C10.4477 17.3334 10 16.8856 10 16.3334C10 15.7811 10.4477 15.3334 11 15.3334ZM11 19H21C21.5523 19 22 19.4478 22 20C22 20.5523 21.5523 21 21 21H11C10.4477 21 10 20.5523 10 20C10 19.4478 10.4477 19 11 19ZM11 22.6667H21C21.5523 22.6667 22 23.1144 22 23.6667C22 24.219 21.5523 24.6667 21 24.6667H11C10.4477 24.6667 10 24.219 10 23.6667C10 23.1144 10.4477 22.6667 11 22.6667ZM18 10.6667V3.33335L26 11.3334H18.6667C18.2985 11.3334 18 11.0349 18 10.6667Z" fill="white"/>
</svg>
