<svg width="32" height="32" viewBox="0 0 32 32" fill="none" xmlns="http://www.w3.org/2000/svg">
<path d="M16 2.66406C23.3649 2.66406 29.3353 8.63452 29.3353 15.9995C29.3353 23.3644 23.3649 29.3348 16 29.3348C8.63502 29.3348 2.66455 23.3644 2.66455 15.9995C2.66455 8.63452 8.63502 2.66406 16 2.66406ZM16 17.9961C13.8201 17.9961 11.7772 18.8732 10.2823 20.3999C9.89588 20.7944 9.90252 21.4276 10.2971 21.814C10.6917 22.2004 11.3248 22.1937 11.7113 21.7991C12.8337 20.6528 14.3635 19.9961 16 19.9961C17.6329 19.9961 19.1595 20.6499 20.2815 21.7917C20.6685 22.1857 21.3016 22.1912 21.6956 21.8041C22.0896 21.4171 22.0951 20.784 21.708 20.39C20.2137 18.8693 18.1749 17.9961 16 17.9961ZM12.0006 11.667C11.0806 11.667 10.3348 12.4127 10.3348 13.3327C10.3348 14.2527 11.0806 14.9984 12.0006 14.9984C12.9205 14.9984 13.6663 14.2527 13.6663 13.3327C13.6663 12.4127 12.9205 11.667 12.0006 11.667ZM20.0005 11.667C19.0805 11.667 18.3348 12.4127 18.3348 13.3327C18.3348 14.2527 19.0805 14.9984 20.0005 14.9984C20.9205 14.9984 21.6663 14.2527 21.6663 13.3327C21.6663 12.4127 20.9205 11.667 20.0005 11.667Z" fill="white"/>
</svg>
