<svg width="32" height="32" viewBox="0 0 32 32" fill="none" xmlns="http://www.w3.org/2000/svg">
<path d="M24.3333 19.3333C27.0948 19.3333 29.3333 21.5719 29.3333 24.3333C29.3333 27.0057 27.2368 29.1884 24.6031 29.3264L24.3379 29.3333L23.0045 29.3395C22.4523 29.342 22.0025 28.8963 22 28.344C21.9977 27.8377 22.372 27.4177 22.8597 27.3492L22.9955 27.3395L24.3333 27.3333C25.9901 27.3333 27.3333 25.9901 27.3333 24.3333C27.3333 22.7455 26.0997 21.4459 24.5387 21.3403L24.3333 21.3333H23C22.4477 21.3333 22 20.8856 22 20.3333C22 19.8271 22.3763 19.4087 22.8643 19.3424L23 19.3333H24.3333ZM18.3333 19.3333C18.8856 19.3333 19.3333 19.7811 19.3333 20.3333C19.3333 20.8396 18.9571 21.258 18.4691 21.3243L18.3333 21.3333H17C15.3432 21.3333 14 22.6765 14 24.3333C14 25.9212 15.2336 27.2208 16.7947 27.3264L17 27.3333H18.3333C18.8856 27.3333 19.3333 27.7811 19.3333 28.3333C19.3333 28.8396 18.9571 29.258 18.4691 29.3243L18.3333 29.3333H17C14.2385 29.3333 12 27.0948 12 24.3333C12 21.6609 14.0965 19.4783 16.7344 19.3403L17 19.3333H18.3333ZM26.3333 8.66668C27.8489 8.66668 29.1021 9.79064 29.3047 11.2505L29.3264 11.4613L29.3333 11.6667L29.3344 20.4469C28.1756 18.9579 26.3664 18 24.3333 18H17C13.5021 18 10.6667 20.8355 10.6667 24.3333C10.6667 25.1579 10.8243 25.9457 11.111 26.6683L5.66667 26.6667C4.07885 26.6667 2.77915 25.4331 2.67359 23.872L2.66667 23.6667V13.9987L10.9426 14L11.2045 13.9885C11.7253 13.9429 12.2253 13.7619 12.6546 13.4636L12.8631 13.3047L18.428 8.66668H26.3333ZM24.3333 23.3333C24.8856 23.3333 25.3333 23.7811 25.3333 24.3333C25.3333 24.8396 24.9571 25.258 24.4691 25.3243L24.3333 25.3333H17C16.4477 25.3333 16 24.8856 16 24.3333C16 23.8271 16.3763 23.4087 16.8643 23.3424L17 23.3333H24.3333ZM10.9426 5.33334C11.5567 5.33334 12.1537 5.52173 12.6546 5.86981L12.8631 6.02868L15.6667 8.36401L11.5827 11.7682L11.4696 11.8498C11.3515 11.9231 11.2194 11.9709 11.0817 11.9903L10.9426 12L2.66667 11.9987V8.33334C2.66667 6.74553 3.90021 5.44582 5.46127 5.34026L5.66667 5.33334H10.9426Z" fill="white"/>
</svg>
