<?xml version="1.0" encoding="utf-8"?>
<!-- Generator: Adobe Illustrator 27.2.0, SVG Export Plug-In . SVG Version: 6.00 Build 0)  -->
<svg version="1.1" id="Layer_1" xmlns="http://www.w3.org/2000/svg" xmlns:xlink="http://www.w3.org/1999/xlink" x="0px" y="0px"
	 viewBox="0 0 32 32" style="enable-background:new 0 0 32 32;" xml:space="preserve">
<style type="text/css">
	.st0{fill:#FFFFFF;}
	.st1{fill:#FFFFFF;stroke:#FFFFFF;}
</style>
<path class="st0" d="M9.2,6.2C8.2,5.6,7,6.4,7,7.5v17c0,1.1,1.2,1.9,2.2,1.3l15-8.5c1-0.6,1-2,0-2.6L9.2,6.2z M5,7.5
	c0-2.7,2.9-4.4,5.2-3l15,8.5c2.4,1.3,2.4,4.7,0,6.1l-15,8.5c-2.3,1.3-5.2-0.4-5.2-3V7.5z"/>
<path class="st1" d="M7,6.5L7.5,6H9l15.5,8.5l1,1.5l-1,1L8,26l-1-1V6.5z"/>
</svg>
