<?xml version="1.0" encoding="utf-8"?>
<!-- Generator: Adobe Illustrator 27.2.0, SVG Export Plug-In . SVG Version: 6.00 Build 0)  -->
<svg version="1.1" id="Layer_1" xmlns="http://www.w3.org/2000/svg" xmlns:xlink="http://www.w3.org/1999/xlink" x="0px" y="0px"
	 viewBox="0 0 32 32" style="enable-background:new 0 0 32 32;" xml:space="preserve">
<style type="text/css">
	.st0{fill:#FF5F5F;}
</style>
<path class="st0" d="M16,1C9.6,1,4.5,5.8,4.5,11.7c0,0.4,0,0.7,0.1,1.1c0,0.4,0.1,0.7,0.1,1.1C6,21.4,11.4,26.7,16,31
	c4.6-4.3,10-9.6,11.3-17.1c0.1-0.4,0.1-0.7,0.1-1.1c0-0.4,0.1-0.7,0.1-1.1C27.5,5.8,22.4,1,16,1z M16,7.4c2.5,0,4.6,1.9,4.6,4.3
	S18.5,16,16,16s-4.6-1.9-4.6-4.3S13.5,7.4,16,7.4z"/>
</svg>
