<?xml version="1.0" encoding="utf-8"?>
<!-- Generator: Adobe Illustrator 27.2.0, SVG Export Plug-In . SVG Version: 6.00 Build 0)  -->
<svg version="1.1" id="Layer_1" xmlns="http://www.w3.org/2000/svg" xmlns:xlink="http://www.w3.org/1999/xlink" x="0px" y="0px"
	 viewBox="0 0 32 32" style="enable-background:new 0 0 32 32;" xml:space="preserve">
<style type="text/css">
	.st0{fill:#FFFFFF;}
</style>
<path class="st0" d="M6.4,27.3h19.1c0.8,0,1.4,0.6,1.4,1.4c0,0.7-0.6,1.4-1.3,1.4l-0.1,0H6.4c-0.8,0-1.4-0.6-1.4-1.4
	c0-0.7,0.6-1.4,1.3-1.4L6.4,27.3h19.1H6.4z M15.9,24.7l-0.1,0c-0.7,0-1.4-0.6-1.4-1.3l0-0.1V5.9l-3.9,3.9c-0.6,0.6-1.5,0.6-2,0
	c-0.6-0.6-0.6-1.5,0-2l6.3-6.3c0.6-0.6,1.5-0.6,2,0l6.3,6.3c0.6,0.6,0.6,1.5,0,2c-0.6,0.6-1.5,0.6-2,0l-3.9-3.9v17.4
	C17.2,24,16.6,24.6,15.9,24.7l-0.1,0L15.9,24.7z"/>
</svg>
