<svg width="32" height="32" viewBox="0 0 32 32" fill="none" xmlns="http://www.w3.org/2000/svg">
<path d="M14.6723 15.982L4.0506 25.5357C3.31647 26.1961 3.31647 27.2638 4.0506 27.9171L5.8157 29.5048C6.54984 30.1651 7.73697 30.1651 8.4633 29.5048L15.9922 22.7329L23.5211 29.5048C24.2552 30.1651 25.4424 30.1651 26.1687 29.5048L27.9494 27.9242C28.6835 27.2638 28.6835 26.1961 27.9494 25.5428L17.3277 15.989C16.5936 15.3217 15.4065 15.3217 14.6723 15.9816V15.982ZM17.3277 2.49442L27.9494 12.0481C28.6835 12.7085 28.6835 13.7762 27.9494 14.4295L26.1843 16.0172C25.4502 16.6775 24.263 16.6775 23.5367 16.0172L16 9.25226L8.47111 16.0242C7.73697 16.6845 6.54984 16.6845 5.82349 16.0242L4.0506 14.4366C3.31647 13.7762 3.31647 12.7085 4.0506 12.0552L14.6723 2.50146C15.4065 1.83409 16.5936 1.83409 17.3277 2.49404V2.49442Z" fill="white"/>
</svg>
