<svg width="32" height="32" viewBox="0 0 32 32" fill="none" xmlns="http://www.w3.org/2000/svg">
<path d="M7.00001 5.66667C7.00001 4.9303 6.40305 4.33334 5.66668 4.33334C4.9303 4.33334 4.33334 4.9303 4.33334 5.66667V24.3333C4.33334 26.1743 5.82573 27.6667 7.66668 27.6667H26.3333C27.0697 27.6667 27.6667 27.0697 27.6667 26.3333C27.6667 25.5969 27.0697 25 26.3333 25H7.66668C7.29849 25 7.00001 24.7015 7.00001 24.3333V5.66667ZM18.6667 9.33334C18.6667 8.59696 19.2636 8 20 8H26.002C26.3556 8 26.6948 8.14054 26.9449 8.39068C27.1949 8.64083 27.3355 8.98007 27.3353 9.33378L27.3333 15.3337C27.3331 16.0701 26.736 16.6669 25.9996 16.6667C25.2632 16.6664 24.6664 16.0693 24.6667 15.3329L24.6676 12.5514L18.6095 18.6095C18.0888 19.1301 17.2445 19.1301 16.7239 18.6095L14.3333 16.2189L10.9428 19.6095C10.4221 20.1301 9.5779 20.1301 9.0572 19.6095C8.5365 19.0888 8.5365 18.2445 9.0572 17.7239L13.3905 13.3905C13.9112 12.8698 14.7555 12.8698 15.2761 13.3905L17.6667 15.7811L22.7811 10.6667H20C19.2636 10.6667 18.6667 10.0697 18.6667 9.33334Z" fill="white"/>
</svg>
