<svg width="32" height="32" viewBox="0 0 32 32" fill="none" xmlns="http://www.w3.org/2000/svg">
<path d="M8.9428 4.39052C8.4221 3.86983 7.57788 3.86983 7.05718 4.39052L5.33332 6.11439L4.9428 5.72385C4.4221 5.20316 3.57788 5.20316 3.05718 5.72385C2.53648 6.24456 2.53648 7.08877 3.05718 7.60948L4.39051 8.94281C4.91122 9.46351 5.75543 9.46351 6.27614 8.94281L8.9428 6.27615C9.4635 5.75544 9.4635 4.91123 8.9428 4.39052ZM28.0045 22.6577H13.3327L13.1772 22.6667C12.5141 22.7437 11.9993 23.3073 11.9993 23.9911C11.9993 24.7275 12.5963 25.3244 13.3327 25.3244H28.0045L28.1601 25.3155C28.8232 25.2384 29.3379 24.6748 29.3379 23.9911C29.3379 23.2547 28.7409 22.6577 28.0045 22.6577ZM28.0045 14.6667H13.3327L13.1772 14.6756C12.5141 14.7527 11.9993 15.3163 11.9993 16C11.9993 16.7364 12.5963 17.3333 13.3327 17.3333H28.0045L28.1601 17.3244C28.8232 17.2473 29.3379 16.6837 29.3379 16C29.3379 15.2636 28.7409 14.6667 28.0045 14.6667ZM28.0045 6.66672H13.3327L13.1772 6.67569C12.5141 6.75271 11.9993 7.31627 11.9993 8.00005C11.9993 8.73643 12.5963 9.33339 13.3327 9.33339H28.0045L28.1601 9.32441C28.8232 9.2474 29.3379 8.68383 29.3379 8.00005C29.3379 7.26367 28.7409 6.66672 28.0045 6.66672ZM8.9428 21.7239C8.4221 21.2032 7.57788 21.2032 7.05718 21.7239L5.33332 23.4477L4.9428 23.0572C4.4221 22.5365 3.57788 22.5365 3.05718 23.0572C2.53648 23.5779 2.53648 24.4221 3.05718 24.9428L4.39051 26.2761C4.91122 26.7968 5.75543 26.7968 6.27614 26.2761L8.9428 23.6095C9.4635 23.0888 9.4635 22.2445 8.9428 21.7239ZM7.05718 13.0572C7.57788 12.5365 8.4221 12.5365 8.9428 13.0572C9.4635 13.5779 9.4635 14.4221 8.9428 14.9428L6.27614 17.6095C5.75543 18.1301 4.91122 18.1301 4.39051 17.6095L3.05718 16.2761C2.53648 15.7555 2.53648 14.9112 3.05718 14.3905C3.57788 13.8699 4.4221 13.8699 4.9428 14.3905L5.33332 14.7811L7.05718 13.0572Z" fill="white"/>
</svg>
