<svg width="32" height="32" viewBox="0 0 32 32" fill="none" xmlns="http://www.w3.org/2000/svg">
<path d="M11.6842 8H22.0824C21.8909 8.84266 21.7895 9.72153 21.7895 10.625C21.7895 10.9194 21.8003 11.2112 21.8213 11.5H11.6842C10.7541 11.5 10 10.7165 10 9.75C10 8.85253 10.6502 8.11286 11.4878 8.01178L11.6842 8Z" fill="white"/>
<path d="M12.9088 25.5117L13.1052 25.5H19.8421C20.7723 25.5 21.5263 26.2835 21.5263 27.25C21.5263 28.1474 20.8762 28.8871 20.0385 28.9883L19.8421 29H13.1052C12.1751 29 11.421 28.2165 11.421 27.25C11.421 26.3526 12.0712 25.6129 12.9088 25.5117Z" fill="white"/>
<path d="M9.73685 16.75H16.5104C17.3788 18.1593 18.5379 19.3564 19.8999 20.25H9.73685C8.8067 20.25 8.05264 19.4665 8.05264 18.5C8.05264 17.6026 8.70282 16.8629 9.54044 16.7617L9.73685 16.75Z" fill="white"/>
<path d="M4.68421 8H15.0824C14.8909 8.84266 14.7895 9.72153 14.7895 10.625C14.7895 10.9194 14.8003 11.2112 14.8213 11.5H4.68421C3.75406 11.5 3 10.7165 3 9.75C3 8.85253 3.65017 8.11286 4.4878 8.01178L4.68421 8Z" fill="white"/>
<path d="M22.3658 20.25H15.5922C14.7238 18.8407 13.5648 17.6436 12.2027 16.75H22.3658C23.2959 16.75 24.05 17.5335 24.05 18.5C24.05 19.3974 23.3998 20.1371 22.5622 20.2383L22.3658 20.25Z" fill="white"/>
<path d="M27.3158 11.5L16.9176 11.5C17.1091 10.6573 17.2105 9.77847 17.2105 8.875C17.2105 8.58058 17.1997 8.28879 17.1787 8L27.3158 8C28.2459 8 29 8.78351 29 9.75C29 10.6475 28.3498 11.3871 27.5122 11.4882L27.3158 11.5Z" fill="white"/>
</svg>
