<svg width="32" height="32" viewBox="0 0 32 32" fill="none" xmlns="http://www.w3.org/2000/svg">
<path d="M15.9999 12.0062C18.9453 12.0062 21.3332 14.394 21.3332 17.3395C21.3332 20.2851 18.9453 22.6728 15.9999 22.6728C13.0543 22.6728 10.6665 20.2851 10.6665 17.3395C10.6665 14.394 13.0543 12.0062 15.9999 12.0062ZM15.9999 7.33334C22.1512 7.33334 27.4613 11.5334 28.9347 17.4192C29.0688 17.9549 28.7432 18.498 28.2075 18.6321C27.6716 18.7661 27.1287 18.4407 26.9945 17.9048C25.7427 12.904 21.2283 9.33334 15.9999 9.33334C10.7691 9.33334 6.25329 12.907 5.00364 17.9109C4.86982 18.4467 4.32697 18.7725 3.79114 18.6388C3.25532 18.5049 2.92942 17.9621 3.06324 17.4263C4.53402 11.537 9.84581 7.33334 15.9999 7.33334Z" fill="white"/>
</svg>
